<?xml version="1.0" encoding="UTF-8"?>
<svg version="1.1" xmlns="http://www.w3.org/2000/svg" width="351" height="281">
<path d="M0 0 C115.83 0 231.66 0 351 0 C351 92.73 351 185.46 351 281 C235.17 281 119.34 281 0 281 C0 188.27 0 95.54 0 0 Z " fill="#FBFAF9" transform="translate(0,0)"/>
<path d="M0 0 C27.72 0 55.44 0 84 0 C84 92.73 84 185.46 84 281 C-31.83 281 -147.66 281 -267 281 C-267 280.34 -267 279.68 -267 279 C-151.83 279 -36.66 279 82 279 C82 246.33 82 213.66 82 180 C75.4 180 68.8 180 62 180 C62 188.91 62 197.82 62 207 C59.2022735 208.39886325 56.87611108 208.12974597 53.75 208.1328125 C52.5021875 208.13410156 51.254375 208.13539063 49.96875 208.13671875 C48.6590625 208.13285156 47.349375 208.12898437 46 208.125 C44.6903125 208.12886719 43.380625 208.13273438 42.03125 208.13671875 C40.15953125 208.13478516 40.15953125 208.13478516 38.25 208.1328125 C37.10015625 208.13168457 35.9503125 208.13055664 34.765625 208.12939453 C32 208 32 208 30 207 C30 198.09 30 189.18 30 180 C11.19 180 -7.62 180 -27 180 C-27 188.91 -27 197.82 -27 207 C-36.9 207 -46.8 207 -57 207 C-57 198.09 -57 189.18 -57 180 C-59.97773438 180.01740234 -59.97773438 180.01740234 -63.015625 180.03515625 C-81.03914272 180.10653652 -98.99074155 179.80154843 -117 179 C-117 178.67 -117 178.34 -117 178 C-107.76 178 -98.52 178 -89 178 C-89 168.76 -89 159.52 -89 150 C-98.24 150 -107.48 150 -117 150 C-117 156.27 -117 162.54 -117 169 C-117.66 169 -118.32 169 -119 169 C-119 168.34 -119 167.68 -119 167 C-119.99 167 -120.98 167 -122 167 C-122 167.66 -122 168.32 -122 169 C-122.66 169 -123.32 169 -124 169 C-124.25 161.375 -124.25 161.375 -122 158 C-121.01 158 -120.02 158 -119 158 C-119 155.36 -119 152.72 -119 150 C-128.24 150 -137.48 150 -147 150 C-147 149.34 -147 148.68 -147 148 C-137.76 148 -128.52 148 -119 148 C-119 147.34 -119 146.68 -119 146 C-119.99 146.33 -120.98 146.66 -122 147 C-123.48123547 147.0806622 -124.96582204 147.10761193 -126.44921875 147.09765625 C-127.29677734 147.09443359 -128.14433594 147.09121094 -129.01757812 147.08789062 C-129.89865234 147.07951172 -130.77972656 147.07113281 -131.6875 147.0625 C-132.58017578 147.05798828 -133.47285156 147.05347656 -134.39257812 147.04882812 C-136.59511987 147.03704983 -138.79752599 147.02060164 -141 147 C-142.3308911 144.33821779 -142.11268993 142.31260604 -142.09765625 139.3359375 C-142.09282227 137.65371094 -142.09282227 137.65371094 -142.08789062 135.9375 C-142.07532227 134.1740625 -142.07532227 134.1740625 -142.0625 132.375 C-142.05798828 131.19164062 -142.05347656 130.00828125 -142.04882812 128.7890625 C-142.03701478 125.85935361 -142.0190789 122.92967059 -142 120 C-146.62 120 -151.24 120 -156 120 C-155.95875 121.381875 -155.9175 122.76375 -155.875 124.1875 C-155.76084186 128.0117976 -156.58356966 130.4747797 -158 134 C-158.51072508 137.27512592 -158.88039464 140.54912563 -159.2421875 143.84375 C-160.12089748 147.50353177 -161.36246704 149.34307341 -164 152 C-165.03125 152.2475 -166.0625 152.495 -167.125 152.75 C-168.07375 153.1625 -169.0225 153.575 -170 154 C-170.64759369 155.95568942 -170.64759369 155.95568942 -170.9375 158.25 C-171.71877826 162.68680037 -172.85271037 165.1916264 -176.453125 167.9765625 C-182.21508205 170.29195015 -188.91967377 169.55984356 -195 169 C-196 168 -196 168 -196.09765625 166.15234375 C-196.06510417 164.1015625 -196.03255208 162.05078125 -196 160 C-197.98 160 -199.96 160 -202 160 C-202 162.64 -202 165.28 -202 168 C-205.06533164 169.53266582 -208.26754272 169.10276471 -211.625 169.0625 C-212.33140625 169.05798828 -213.0378125 169.05347656 -213.765625 169.04882812 C-215.51045275 169.03703875 -217.255237 169.01910324 -219 169 C-220.31223496 165.06329512 -219.24296256 162.87511856 -218 159 C-219.11375 158.87625 -220.2275 158.7525 -221.375 158.625 C-225 158 -225 158 -227 156 C-229.00879584 155.77320047 -231.01766519 155.54696477 -233.02734375 155.328125 C-235.79022212 154.86855711 -237.16859464 154.12443021 -239 152 C-239.875 148.9375 -239.875 148.9375 -240 146 C-238 144 -238 144 -235.375 143.875 C-234.59125 143.91625 -233.8075 143.9575 -233 144 C-233 142.35 -233 140.7 -233 139 C-230.03 139.66 -227.06 140.32 -224 141 C-223.67 140.01 -223.34 139.02 -223 138 C-222.01 137.34 -221.02 136.68 -220 136 C-219.525625 135.195625 -219.05125 134.39125 -218.5625 133.5625 C-216.91734525 130.86444622 -215.74657535 129.53485093 -213 128 C-210.25 127.8125 -210.25 127.8125 -208 128 C-208 127.34 -208 126.68 -208 126 C-208.928125 126.061875 -209.85625 126.12375 -210.8125 126.1875 C-214 126 -214 126 -215.875 124.8125 C-217.51651306 122.16784006 -217.71370414 121.0689278 -217 118 C-213.77951363 114.33748608 -209.80674775 111.10924948 -205 110 C-199.46808511 110.53191489 -199.46808511 110.53191489 -198 112 C-197.92124154 113.79102563 -197.86188792 115.58292396 -197.8125 117.375 C-197.62170177 120.34020979 -197.62170177 120.34020979 -197 123 C-193.74988 125.69522147 -190.93639302 126.05033917 -186.875 126.4375 C-183 127 -183 127 -180.5 128.875 C-179 131 -179 131 -179 134 C-178.2575 134.28875 -177.515 134.5775 -176.75 134.875 C-174 136 -174 136 -172 137.125 C-169.55711377 138.19376273 -167.63824739 138.1465693 -165 138 C-164.814375 136.63875 -164.814375 136.63875 -164.625 135.25 C-164 132 -164 132 -163 130.125 C-161.46106189 126.85475651 -161.35853508 123.58535082 -161 120 C-165.95 120 -170.9 120 -176 120 C-176 119.34 -176 118.68 -176 118 C-167.09 118 -158.18 118 -149 118 C-149 108.76 -149 99.52 -149 90 C-157.91 90 -166.82 90 -176 90 C-176 89.34 -176 88.68 -176 88 C-156.95352522 87.86371413 -138.03317244 88.2191519 -119 89 C-119 79.76 -119 70.52 -119 61 C-118.34 61 -117.68 61 -117 61 C-117 69.91 -117 78.82 -117 88 C-107.76 88 -98.52 88 -89 88 C-89 79.09 -89 70.18 -89 61 C-88.34 61 -87.68 61 -87 61 C-87 69.91 -87 78.82 -87 88 C-77.76 88 -68.52 88 -59 88 C-59 78.76 -59 69.52 -59 60 C-68.24 60 -77.48 60 -87 60 C-87 59.34 -87 58.68 -87 58 C-77.76 58 -68.52 58 -59 58 C-59 49.09 -59 40.18 -59 31 C-58.34 31 -57.68 31 -57 31 C-57 39.91 -57 48.82 -57 58 C-48.09 58 -39.18 58 -30 58 C-30.0309375 52.245625 -30.0309375 52.245625 -30.0625 46.375 C-30.10124331 31.23392593 -29.59715018 16.12727529 -29 1 C-28.34 1 -27.68 1 -27 1 C-27 10.24 -27 19.48 -27 29 C-18.09 29 -9.18 29 0 29 C0 19.43 0 9.86 0 0 Z " fill="#F4F3F1" transform="translate(267,0)"/>
<path d="M0 0 C9.9 0 19.8 0 30 0 C30 18.48 30 36.96 30 56 C33.3 56 36.6 56 40 56 C41 57 41 57 41.25 59.75 C41 63 41 63 39.4375 65.5625 C37.74358775 67.90737163 37.74358775 67.90737163 38.1875 70.625 C38.96244996 73.2204806 38.96244996 73.2204806 41 76 C41.484375 78.41015625 41.484375 78.41015625 41.75 81.0625 C41.84796875 81.94035156 41.9459375 82.81820312 42.046875 83.72265625 C42 86 42 86 40 88 C46.6 88.33 53.2 88.66 60 89 C60 91.97 60 94.94 60 98 C61.32 98.33 62.64 98.66 64 99 C64 99.99 64 100.98 64 102 C63.34 102 62.68 102 62 102 C62 104.64 62 107.28 62 110 C61.01 110 60.02 110 59 110 C59 107.36 59 104.72 59 102 C58.34 102 57.68 102 57 102 C57.33 98.37 57.66 94.74 58 91 C48.76 91 39.52 91 30 91 C30.33 94.63 30.66 98.26 31 102 C31.66 102 32.32 102 33 102 C33 101.34 33 100.68 33 100 C34.9375 100.375 34.9375 100.375 37 101 C37.33 101.66 37.66 102.32 38 103 C38.33 102.01 38.66 101.02 39 100 C39.66 100 40.32 100 41 100 C40.67 102.97 40.34 105.94 40 109 C38.68 109.33 37.36 109.66 36 110 C36 108.68 36 107.36 36 106 C35.34 106 34.68 106 34 106 C33.67 107.65 33.34 109.3 33 111 C32.01 111 31.02 111 30 111 C30 114.3 30 117.6 30 121 C9.96733386 121.12750914 -9.98319038 120.89089967 -30 120 C-30 119.67 -30 119.34 -30 119 C-20.76 119 -11.52 119 -2 119 C-2 109.76 -2 100.52 -2 91 C-11.24 91 -20.48 91 -30 91 C-30 97.27 -30 103.54 -30 110 C-30.66 110 -31.32 110 -32 110 C-32 109.34 -32 108.68 -32 108 C-32.99 108 -33.98 108 -35 108 C-35 108.66 -35 109.32 -35 110 C-35.66 110 -36.32 110 -37 110 C-37.25 102.375 -37.25 102.375 -35 99 C-34.01 99 -33.02 99 -32 99 C-32 96.36 -32 93.72 -32 91 C-41.24 91 -50.48 91 -60 91 C-60 90.34 -60 89.68 -60 89 C-50.76 89 -41.52 89 -32 89 C-32 88.34 -32 87.68 -32 87 C-33.485 87.495 -33.485 87.495 -35 88 C-36.48123547 88.0806622 -37.96582204 88.10761193 -39.44921875 88.09765625 C-40.29677734 88.09443359 -41.14433594 88.09121094 -42.01757812 88.08789062 C-42.89865234 88.07951172 -43.77972656 88.07113281 -44.6875 88.0625 C-45.58017578 88.05798828 -46.47285156 88.05347656 -47.39257812 88.04882812 C-49.59511987 88.03704983 -51.79752599 88.02060164 -54 88 C-55.3308911 85.33821779 -55.11268993 83.31260604 -55.09765625 80.3359375 C-55.09282227 78.65371094 -55.09282227 78.65371094 -55.08789062 76.9375 C-55.07532227 75.1740625 -55.07532227 75.1740625 -55.0625 73.375 C-55.05798828 72.19164062 -55.05347656 71.00828125 -55.04882812 69.7890625 C-55.03701478 66.85935361 -55.0190789 63.92967059 -55 61 C-59.62 61 -64.24 61 -69 61 C-68.95875 62.381875 -68.9175 63.76375 -68.875 65.1875 C-68.76084186 69.0117976 -69.58356966 71.4747797 -71 75 C-71.51072508 78.27512592 -71.88039464 81.54912563 -72.2421875 84.84375 C-73.12089748 88.50353177 -74.36246704 90.34307341 -77 93 C-78.03125 93.2475 -79.0625 93.495 -80.125 93.75 C-81.07375 94.1625 -82.0225 94.575 -83 95 C-83.64759369 96.95568942 -83.64759369 96.95568942 -83.9375 99.25 C-84.71877826 103.68680037 -85.85271037 106.1916264 -89.453125 108.9765625 C-95.21508205 111.29195015 -101.91967377 110.55984356 -108 110 C-109 109 -109 109 -109.09765625 107.15234375 C-109.06510417 105.1015625 -109.03255208 103.05078125 -109 101 C-110.98 101 -112.96 101 -115 101 C-115 103.64 -115 106.28 -115 109 C-118.06533164 110.53266582 -121.26754272 110.10276471 -124.625 110.0625 C-125.33140625 110.05798828 -126.0378125 110.05347656 -126.765625 110.04882812 C-128.51045275 110.03703875 -130.255237 110.01910324 -132 110 C-133.31223496 106.06329512 -132.24296256 103.87511856 -131 100 C-132.670625 99.814375 -132.670625 99.814375 -134.375 99.625 C-138 99 -138 99 -140 97 C-142.00879584 96.77320047 -144.01766519 96.54696477 -146.02734375 96.328125 C-148.79022212 95.86855711 -150.16859464 95.12443021 -152 93 C-152.875 89.9375 -152.875 89.9375 -153 87 C-151 85 -151 85 -148.375 84.875 C-147.59125 84.91625 -146.8075 84.9575 -146 85 C-146 83.35 -146 81.7 -146 80 C-143.03 80.66 -140.06 81.32 -137 82 C-136.505 80.515 -136.505 80.515 -136 79 C-134.515 78.01 -134.515 78.01 -133 77 C-132.525625 76.195625 -132.05125 75.39125 -131.5625 74.5625 C-129.91734525 71.86444622 -128.74657535 70.53485093 -126 69 C-123.25 68.8125 -123.25 68.8125 -121 69 C-121 68.34 -121 67.68 -121 67 C-121.928125 67.061875 -122.85625 67.12375 -123.8125 67.1875 C-127 67 -127 67 -128.875 65.8125 C-130.51651306 63.16784006 -130.71370414 62.0689278 -130 59 C-126.77951363 55.33748608 -122.80674775 52.10924948 -118 51 C-112.46808511 51.53191489 -112.46808511 51.53191489 -111 53 C-110.92124154 54.79102563 -110.86188792 56.58292396 -110.8125 58.375 C-110.62170177 61.34020979 -110.62170177 61.34020979 -110 64 C-106.74988 66.69522147 -103.93639302 67.05033917 -99.875 67.4375 C-96 68 -96 68 -93.5 69.875 C-92 72 -92 72 -92 75 C-91.2575 75.28875 -90.515 75.5775 -89.75 75.875 C-87 77 -87 77 -85 78.125 C-82.55711377 79.19376273 -80.63824739 79.1465693 -78 79 C-77.814375 77.63875 -77.814375 77.63875 -77.625 76.25 C-77 73 -77 73 -76 71.125 C-74.46106189 67.85475651 -74.35853508 64.58535082 -74 61 C-78.95 61 -83.9 61 -89 61 C-89 60.34 -89 59.68 -89 59 C-80.09 59 -71.18 59 -62 59 C-62 49.76 -62 40.52 -62 31 C-70.91 31 -79.82 31 -89 31 C-89 30.34 -89 29.68 -89 29 C-69.95352522 28.86371413 -51.03317244 29.2191519 -32 30 C-32 20.76 -32 11.52 -32 2 C-31.34 2 -30.68 2 -30 2 C-30 10.91 -30 19.82 -30 29 C-20.76 29 -11.52 29 -2 29 C-2 20.09 -2 11.18 -2 2 C-1.34 2 -0.68 2 0 2 C0 10.91 0 19.82 0 29 C9.24 29 18.48 29 28 29 C28 19.76 28 10.52 28 1 C18.76 1 9.52 1 0 1 C0 0.67 0 0.34 0 0 Z " fill="#F8F3F1" transform="translate(180,59)"/>
<path d="M0 0 C0.66 0 1.32 0 2 0 C2 92.73 2 185.46 2 281 C-113.83 281 -229.66 281 -349 281 C-349 280.34 -349 279.68 -349 279 C-233.83 279 -118.66 279 0 279 C0 246.33 0 213.66 0 180 C-6.6 180 -13.2 180 -20 180 C-20 188.91 -20 197.82 -20 207 C-22.7977265 208.39886325 -25.12388892 208.12974597 -28.25 208.1328125 C-29.4978125 208.13410156 -30.745625 208.13539063 -32.03125 208.13671875 C-33.3409375 208.13285156 -34.650625 208.12898437 -36 208.125 C-37.3096875 208.12886719 -38.619375 208.13273438 -39.96875 208.13671875 C-41.84046875 208.13478516 -41.84046875 208.13478516 -43.75 208.1328125 C-44.89984375 208.13168457 -46.0496875 208.13055664 -47.234375 208.12939453 C-50 208 -50 208 -52 207 C-52 198.09 -52 189.18 -52 180 C-70.81 180 -89.62 180 -109 180 C-109 188.91 -109 197.82 -109 207 C-118.9 207 -128.8 207 -139 207 C-139 194.79 -139 182.58 -139 170 C-138.01 169.67 -137.02 169.34 -136 169 C-135.26676204 166.98491642 -135.26676204 166.98491642 -135 165 C-134.34 165 -133.68 165 -133 165 C-133 166.32 -133 167.64 -133 169 C-132.01 168.67 -131.02 168.34 -130 168 C-129.19436362 165.89415562 -129.19436362 165.89415562 -128.8125 163.4375 C-128.65394531 162.61121094 -128.49539062 161.78492188 -128.33203125 160.93359375 C-128.22246094 160.29550781 -128.11289063 159.65742188 -128 159 C-128.66 159 -129.32 159 -130 159 C-130.33 160.32 -130.66 161.64 -131 163 C-131.66 162.01 -132.32 161.02 -133 160 C-133.99 159.67 -134.98 159.34 -136 159 C-136 159.66 -136 160.32 -136 161 C-136.66 161 -137.32 161 -138 161 C-139 158 -139 158 -139 150 C-129.76 150 -120.52 150 -111 150 C-111 158 -111 158 -112 161 C-111.34 161 -110.68 161 -110 161 C-110 163.64 -110 166.28 -110 169 C-109.01 169 -108.02 169 -107 169 C-107 166.36 -107 163.72 -107 161 C-106.34 161 -105.68 161 -105 161 C-105 160.01 -105 159.02 -105 158 C-106.65 157.67 -108.3 157.34 -110 157 C-110.125 150.25 -110.125 150.25 -109 148 C-99.76 148 -90.52 148 -81 148 C-81.01160156 145.70160156 -81.02320313 143.40320313 -81.03515625 141.03515625 C-81.04294709 138.81779112 -81.04902369 136.60042749 -81.05493164 134.38305664 C-81.0599714 132.83780234 -81.0668032 131.29255284 -81.07543945 129.74731445 C-81.08752076 127.53074971 -81.09323173 125.31424782 -81.09765625 123.09765625 C-81.10281754 122.4028566 -81.10797882 121.70805695 -81.11329651 120.99220276 C-81.11349277 119.3277067 -81.06189129 117.66334501 -81 116 C-79.08958442 114.08958442 -75.78859404 114.82566698 -73.25 114.8125 C-72.01765625 114.79832031 -70.7853125 114.78414063 -69.515625 114.76953125 C-66.14954858 114.99019626 -64.0308314 115.61852919 -61 117 C-59.0075675 117.37593066 -57.0081326 117.71979545 -55 118 C-54.67 117.01 -54.34 116.02 -54 115 C-50.55197224 114.51794563 -47.42669866 114.30099552 -44 115 C-42.14868159 116.85564392 -41.16377086 118.6011019 -40.03515625 120.95703125 C-38.95462536 123.08955071 -37.76341756 124.40739782 -36 126 C-35.9175 125.29875 -35.835 124.5975 -35.75 123.875 C-34.79000618 120.19502369 -33.48218601 117.88470266 -31 115 C-27.75 114.625 -27.75 114.625 -25 115 C-25 115.99 -25 116.98 -25 118 C-16.75 118 -8.5 118 0 118 C0 79.06 0 40.12 0 0 Z " fill="#FBF8F5" transform="translate(349,0)"/>
<path d="M0 0 C0.66 0 1.32 0 2 0 C2 92.73 2 185.46 2 281 C-113.83 281 -229.66 281 -349 281 C-349 280.34 -349 279.68 -349 279 C-233.83 279 -118.66 279 0 279 C0 236.43 0 193.86 0 150 C-6.6 150 -13.2 150 -20 150 C-20 159.24 -20 168.48 -20 178 C-20.66 178 -21.32 178 -22 178 C-22 168.76 -22 159.52 -22 150 C-31.9 150 -41.8 150 -52 150 C-52.4375 136.625 -52.4375 136.625 -52.56811523 132.40869141 C-52.60622314 131.31733887 -52.64433105 130.22598633 -52.68359375 129.1015625 C-52.72025146 127.98088379 -52.75690918 126.86020508 -52.79467773 125.70556641 C-52.82596013 123.03287229 -52.82596013 123.03287229 -54 121 C-57.02934491 120.34227572 -57.02934491 120.34227572 -60 120 C-59.896875 121.216875 -59.79375 122.43375 -59.6875 123.6875 C-59.65408479 127.45005227 -59.90669702 127.88803642 -62.5 131 C-63.325 131.66 -64.15 132.32 -65 133 C-63.68 133.66 -62.36 134.32 -61 135 C-61 138.63 -61 142.26 -61 146 C-62.65 146.33 -64.3 146.66 -66 147 C-68.49505962 144.50494038 -68.35948376 143.32671112 -68.625 139.875 C-68.69976562 138.96492187 -68.77453125 138.05484375 -68.8515625 137.1171875 C-68.90054687 136.41851562 -68.94953125 135.71984375 -69 135 C-70.65 134.67 -72.3 134.34 -74 134 C-73.98839844 134.78246094 -73.97679687 135.56492188 -73.96484375 136.37109375 C-73.95130859 137.88896484 -73.95130859 137.88896484 -73.9375 139.4375 C-73.92589844 140.44683594 -73.91429687 141.45617187 -73.90234375 142.49609375 C-74 145 -74 145 -75 146 C-76.99958364 146.04080783 -79.00045254 146.04254356 -81 146 C-81.02465622 141.74585377 -81.04283899 137.49174502 -81.05493164 133.23754883 C-81.05997101 131.78929927 -81.06680253 130.34105483 -81.07543945 128.89282227 C-81.08752247 126.81525412 -81.09323211 124.73775303 -81.09765625 122.66015625 C-81.10551147 120.78275757 -81.10551147 120.78275757 -81.11352539 118.86743164 C-81 116 -81 116 -80 115 C-77.75268875 114.8735152 -75.50083761 114.82417447 -73.25 114.8125 C-72.01765625 114.79832031 -70.7853125 114.78414063 -69.515625 114.76953125 C-66.14954858 114.99019626 -64.0308314 115.61852919 -61 117 C-59.0075675 117.37593066 -57.0081326 117.71979545 -55 118 C-54.67 117.01 -54.34 116.02 -54 115 C-50.55197224 114.51794563 -47.42669866 114.30099552 -44 115 C-42.14868159 116.85564392 -41.16377086 118.6011019 -40.03515625 120.95703125 C-38.95462536 123.08955071 -37.76341756 124.40739782 -36 126 C-35.9175 125.29875 -35.835 124.5975 -35.75 123.875 C-34.79000618 120.19502369 -33.48218601 117.88470266 -31 115 C-27.75 114.625 -27.75 114.625 -25 115 C-25 115.99 -25 116.98 -25 118 C-16.75 118 -8.5 118 0 118 C0 79.06 0 40.12 0 0 Z " fill="#DADADA" transform="translate(349,0)"/>
<path d="M0 0 C1.69689219 1.69689219 1.12362686 4.05731757 1.1875 6.375 C1.37829823 9.34020979 1.37829823 9.34020979 2 12 C5.25012 14.69522147 8.06360698 15.05033917 12.125 15.4375 C16 16 16 16 18.5 17.875 C20 20 20 20 20 23 C21.11375 23.433125 21.11375 23.433125 22.25 23.875 C25 25 25 25 27 26.125 C29.44288623 27.19376273 31.36175261 27.1465693 34 27 C34 26.01 34 25.02 34 24 C35.65 24 37.3 24 39 24 C40.56274296 28.84450317 39.78134464 33.32833637 38 38 C35.14957329 41.00044917 32.95704352 42.12439888 29 43 C28.93683594 43.58007812 28.87367187 44.16015625 28.80859375 44.7578125 C27.99555441 49.94414766 26.78673545 53.69701232 22.546875 56.9765625 C16.78491795 59.29195015 10.08032623 58.55984356 4 58 C3 57 3 57 2.90234375 55.15234375 C2.93489583 53.1015625 2.96744792 51.05078125 3 49 C1.02 49 -0.96 49 -3 49 C-3 51.64 -3 54.28 -3 57 C-6.06533164 58.53266582 -9.26754272 58.10276471 -12.625 58.0625 C-13.33140625 58.05798828 -14.0378125 58.05347656 -14.765625 58.04882812 C-16.51045275 58.03703875 -18.255237 58.01910324 -20 58 C-21.31223496 54.06329512 -20.24296256 51.87511856 -19 48 C-20.670625 47.814375 -20.670625 47.814375 -22.375 47.625 C-26 47 -26 47 -28 45 C-30.00879584 44.77320047 -32.01766519 44.54696477 -34.02734375 44.328125 C-36.79022212 43.86855711 -38.16859464 43.12443021 -40 41 C-40.875 37.9375 -40.875 37.9375 -41 35 C-39 33 -39 33 -36.375 32.875 C-35.59125 32.91625 -34.8075 32.9575 -34 33 C-34 31.35 -34 29.7 -34 28 C-29.545 28.99 -29.545 28.99 -25 30 C-24.67 29.01 -24.34 28.02 -24 27 C-23.01 26.34 -22.02 25.68 -21 25 C-20.525625 24.195625 -20.05125 23.39125 -19.5625 22.5625 C-17.91734525 19.86444622 -16.74657535 18.53485093 -14 17 C-11.25 16.8125 -11.25 16.8125 -9 17 C-9 16.34 -9 15.68 -9 15 C-9.928125 15.061875 -10.85625 15.12375 -11.8125 15.1875 C-15 15 -15 15 -16.875 13.8125 C-18.51651306 11.16784006 -18.71370414 10.0689278 -18 7 C-12.90789138 1.20897451 -7.73621449 -1.93405362 0 0 Z " fill="#FCF5ED" transform="translate(68,111)"/>
<path d="M0 0 C1.13953125 -0.02578125 2.2790625 -0.0515625 3.453125 -0.078125 C7.06848819 0.28169788 8.91635714 1.00388309 11.75 3.25 C12.91743282 7.91973127 12.75 12.46098203 12.75 17.25 C13.08 17.91 13.41 18.57 13.75 19.25 C13.68757961 20.87860483 13.55287069 22.50493456 13.375 24.125 C13.28476563 24.98867187 13.19453125 25.85234375 13.1015625 26.7421875 C12.75 29.25 12.75 29.25 11.75 33.25 C24.125 32.755 24.125 32.755 36.75 32.25 C36.255 31.26 36.255 31.26 35.75 30.25 C35.710008 28.25039988 35.70653201 26.24952758 35.75 24.25 C34.76 24.25 33.77 24.25 32.75 24.25 C32.770625 25.219375 32.79125 26.18875 32.8125 27.1875 C32.75 30.25 32.75 30.25 31.75 31.25 C29.25 31.375 29.25 31.375 26.75 31.25 C25.14692003 29.64692003 25.42454153 28.04314497 25.3125 25.8125 C25.33062983 18.95035896 27.69833685 5.30166315 32.75 0.25 C38.54588336 -0.21740995 38.54588336 -0.21740995 40.75 0.25 C46.84026895 6.45767172 48.01178399 16.73328988 48.0625 25 C47.9356018 31.0643982 47.9356018 31.0643982 46.75 32.25 C45.1 32.25 43.45 32.25 41.75 32.25 C41.75 42.48 41.75 52.71 41.75 63.25 C50.99 63.25 60.23 63.25 69.75 63.25 C69.75 52.36 69.75 41.47 69.75 30.25 C67.44 30.58 65.13 30.91 62.75 31.25 C61.75 30.25 61.75 30.25 61.63647461 27.47436523 C61.64432983 25.65980835 61.64432983 25.65980835 61.65234375 23.80859375 C61.65717773 21.85083008 61.65717773 21.85083008 61.66210938 19.85351562 C61.67046599 18.4648431 61.67893095 17.07617123 61.6875 15.6875 C61.69251334 14.29492344 61.69707653 12.90234519 61.70117188 11.50976562 C61.71300566 8.0898013 61.7294912 4.66992156 61.75 1.25 C63.7414056 0.86866701 65.74279077 0.53674418 67.75 0.25 C68.75 1.25 68.75 1.25 68.84765625 3.97265625 C68.83605469 5.07480469 68.82445312 6.17695312 68.8125 7.3125 C68.80347656 8.41722656 68.79445313 9.52195312 68.78515625 10.66015625 C68.77355469 11.51480469 68.76195312 12.36945313 68.75 13.25 C70.07 13.25 71.39 13.25 72.75 13.25 C72.853125 12.569375 72.95625 11.88875 73.0625 11.1875 C73.91022445 7.56540461 74.983109 4.53136901 76.75 1.25 C79.375 0.25 79.375 0.25 81.75 0.25 C82.75 1.25 82.75 1.25 83 4 C82.75 7.25 82.75 7.25 81.1875 9.8125 C79.49358775 12.15737163 79.49358775 12.15737163 79.9375 14.875 C80.71244996 17.4704806 80.71244996 17.4704806 82.75 20.25 C83.234375 22.66015625 83.234375 22.66015625 83.5 25.3125 C83.59796875 26.19035156 83.6959375 27.06820312 83.796875 27.97265625 C83.75 30.25 83.75 30.25 81.75 32.25 C88.35 32.58 94.95 32.91 101.75 33.25 C101.75 36.22 101.75 39.19 101.75 42.25 C103.73 42.745 103.73 42.745 105.75 43.25 C105.75 44.24 105.75 45.23 105.75 46.25 C105.09 46.25 104.43 46.25 103.75 46.25 C103.75 48.89 103.75 51.53 103.75 54.25 C102.76 54.25 101.77 54.25 100.75 54.25 C100.75 51.61 100.75 48.97 100.75 46.25 C100.09 46.25 99.43 46.25 98.75 46.25 C99.08 42.62 99.41 38.99 99.75 35.25 C90.51 35.25 81.27 35.25 71.75 35.25 C72.245 40.695 72.245 40.695 72.75 46.25 C73.41 46.25 74.07 46.25 74.75 46.25 C74.75 45.59 74.75 44.93 74.75 44.25 C76.6875 44.625 76.6875 44.625 78.75 45.25 C79.08 45.91 79.41 46.57 79.75 47.25 C80.08 46.26 80.41 45.27 80.75 44.25 C81.41 44.25 82.07 44.25 82.75 44.25 C82.42 47.22 82.09 50.19 81.75 53.25 C80.43 53.58 79.11 53.91 77.75 54.25 C77.75 52.93 77.75 51.61 77.75 50.25 C77.09 50.25 76.43 50.25 75.75 50.25 C75.42 51.9 75.09 53.55 74.75 55.25 C73.76 55.25 72.77 55.25 71.75 55.25 C71.75 58.55 71.75 61.85 71.75 65.25 C51.71733386 65.37750914 31.76680962 65.14089967 11.75 64.25 C11.75 63.92 11.75 63.59 11.75 63.25 C20.99 63.25 30.23 63.25 39.75 63.25 C39.75 54.01 39.75 44.77 39.75 35.25 C30.51 35.25 21.27 35.25 11.75 35.25 C11.75 41.52 11.75 47.79 11.75 54.25 C11.09 54.25 10.43 54.25 9.75 54.25 C9.75 53.59 9.75 52.93 9.75 52.25 C8.76 52.25 7.77 52.25 6.75 52.25 C6.75 52.91 6.75 53.57 6.75 54.25 C6.09 54.25 5.43 54.25 4.75 54.25 C4.5 46.625 4.5 46.625 6.75 43.25 C7.74 43.25 8.73 43.25 9.75 43.25 C9.75 40.61 9.75 37.97 9.75 35.25 C0.51 35.25 -8.73 35.25 -18.25 35.25 C-18.25 34.59 -18.25 33.93 -18.25 33.25 C-9.01 33.25 0.23 33.25 9.75 33.25 C9.75 32.59 9.75 31.93 9.75 31.25 C8.76 31.58 7.77 31.91 6.75 32.25 C4.52181559 32.31937062 2.29165476 32.33457084 0.0625 32.3125 C-1.70673828 32.29896484 -1.70673828 32.29896484 -3.51171875 32.28515625 C-4.41535156 32.27355469 -5.31898438 32.26195312 -6.25 32.25 C-7.67917743 29.39164514 -7.37980809 26.93742281 -7.3828125 23.74609375 C-7.38410156 22.44865234 -7.38539063 21.15121094 -7.38671875 19.81445312 C-7.38462402 19.13777588 -7.3825293 18.46109863 -7.38037109 17.76391602 C-7.37501202 15.69214585 -7.38032518 13.62059161 -7.38671875 11.54882812 C-7.38542969 10.25267578 -7.38414062 8.95652344 -7.3828125 7.62109375 C-7.38112061 5.8256311 -7.38112061 5.8256311 -7.37939453 3.99389648 C-7.14160601 -1.04856622 -4.46903977 0.06012161 0 0 Z " fill="#ECEBE9" transform="translate(138.25,114.75)"/>
<path d="M0 0 C1.23234375 -0.01417969 2.4646875 -0.02835937 3.734375 -0.04296875 C7.10045142 0.17769626 9.2191686 0.80602919 12.25 2.1875 C14.2424325 2.56343066 16.2418674 2.90729545 18.25 3.1875 C18.58 2.1975 18.91 1.2075 19.25 0.1875 C22.69802776 -0.29455437 25.82330134 -0.51150448 29.25 0.1875 C31.10131841 2.04314392 32.08622914 3.7886019 33.21484375 6.14453125 C34.29537464 8.27705071 35.48658244 9.59489782 37.25 11.1875 C37.3325 10.48625 37.415 9.785 37.5 9.0625 C38.45999382 5.38252369 39.76781399 3.07220266 42.25 0.1875 C45.5 -0.1875 45.5 -0.1875 48.25 0.1875 C48.25 1.1775 48.25 2.1675 48.25 3.1875 C56.5 3.1875 64.75 3.1875 73.25 3.1875 C73.25 3.8475 73.25 4.5075 73.25 5.1875 C66.65 5.1875 60.05 5.1875 53.25 5.1875 C53.25 14.4275 53.25 23.6675 53.25 33.1875 C59.85 33.1875 66.45 33.1875 73.25 33.1875 C73.25 33.8475 73.25 34.5075 73.25 35.1875 C66.65 35.1875 60.05 35.1875 53.25 35.1875 C53.25 44.4275 53.25 53.6675 53.25 63.1875 C52.59 63.1875 51.93 63.1875 51.25 63.1875 C51.25 53.9475 51.25 44.7075 51.25 35.1875 C41.35 35.1875 31.45 35.1875 21.25 35.1875 C20.8125 21.8125 20.8125 21.8125 20.68188477 17.59619141 C20.6247229 15.9591626 20.6247229 15.9591626 20.56640625 14.2890625 C20.52974854 13.16838379 20.49309082 12.04770508 20.45532227 10.89306641 C20.42403987 8.22037229 20.42403987 8.22037229 19.25 6.1875 C16.22065509 5.52977572 16.22065509 5.52977572 13.25 5.1875 C13.353125 6.404375 13.45625 7.62125 13.5625 8.875 C13.59591521 12.63755227 13.34330298 13.07553642 10.75 16.1875 C9.925 16.8475 9.1 17.5075 8.25 18.1875 C9.57 18.8475 10.89 19.5075 12.25 20.1875 C12.25 23.8175 12.25 27.4475 12.25 31.1875 C10.6 31.5175 8.95 31.8475 7.25 32.1875 C4.75494038 29.69244038 4.89051624 28.51421112 4.625 25.0625 C4.55023438 24.15242188 4.47546875 23.24234375 4.3984375 22.3046875 C4.34945313 21.60601562 4.30046875 20.90734375 4.25 20.1875 C2.6 19.8575 0.95 19.5275 -0.75 19.1875 C-0.73839844 19.96996094 -0.72679687 20.75242188 -0.71484375 21.55859375 C-0.70582031 22.57050781 -0.69679688 23.58242187 -0.6875 24.625 C-0.67589844 25.63433594 -0.66429687 26.64367187 -0.65234375 27.68359375 C-0.75 30.1875 -0.75 30.1875 -1.75 31.1875 C-3.74958364 31.22830783 -5.75045254 31.23004356 -7.75 31.1875 C-7.77465622 26.93335377 -7.79283899 22.67924502 -7.80493164 18.42504883 C-7.80997101 16.97679927 -7.81680253 15.52855483 -7.82543945 14.08032227 C-7.83752247 12.00275412 -7.84323211 9.92525303 -7.84765625 7.84765625 C-7.85289307 6.59605713 -7.85812988 5.34445801 -7.86352539 4.05493164 C-7.65219084 -1.28297006 -4.69898789 0.02437234 0 0 Z " fill="#ECEAE9" transform="translate(275.75,114.8125)"/>
<path d="M0 0 C9.24 0 18.48 0 28 0 C28 7.92 28 15.84 28 24 C25.69 24.66 23.38 25.32 21 26 C19.54325399 27.64026056 19.54325399 27.64026056 19.00390625 29.74609375 C18.75527832 30.49648926 18.50665039 31.24688477 18.25048828 32.02001953 C17.90993408 33.21667236 17.90993408 33.21667236 17.5625 34.4375 C17.31226074 35.24558105 17.06202148 36.05366211 16.80419922 36.88623047 C15.02878809 42.96485956 14.24676239 48.66722457 15 55 C16.65 55 18.3 55 20 55 C20.33 53.02 20.66 51.04 21 49 C21.99 49 22.98 49 24 49 C24.33 51.64 24.66 54.28 25 57 C26.485 57.495 26.485 57.495 28 58 C18.76 58 9.52 58 0 58 C0.29296875 54.41927083 0.5859375 50.83854167 0.87890625 47.2578125 C1.25683367 44.11356058 1.25683367 44.11356058 0 42 C-0.08902493 40.64154807 -0.11760132 39.27884026 -0.11352539 37.91748047 C-0.11344986 37.07675995 -0.11337433 36.23603943 -0.11329651 35.36984253 C-0.10813522 34.46146637 -0.10297394 33.55309021 -0.09765625 32.6171875 C-0.0962413 31.68778351 -0.09482635 30.75837952 -0.09336853 29.80081177 C-0.08776053 26.82550876 -0.07520668 23.85028036 -0.0625 20.875 C-0.05748603 18.86067817 -0.05292295 16.84635516 -0.04882812 14.83203125 C-0.03863838 9.8879688 -0.01906453 4.94406815 0 0 Z " fill="#FEFDFC" transform="translate(150,90)"/>
<path d="M0 0 C1.69689219 1.69689219 1.12362686 4.05731757 1.1875 6.375 C1.37829823 9.34020979 1.37829823 9.34020979 2 12 C5.25012 14.69522147 8.06360698 15.05033917 12.125 15.4375 C16 16 16 16 18.5 17.875 C20 20 20 20 20 23 C22.475 23.99 22.475 23.99 25 25 C25.495 28.96 25.495 28.96 26 33 C26.66 33 27.32 33 28 33 C28 33.99 28 34.98 28 36 C25.625 35.4375 25.625 35.4375 23 34 C21.6875 30.375 21.6875 30.375 21 27 C20.38125 26.95875 19.7625 26.9175 19.125 26.875 C18.42375 26.58625 17.7225 26.2975 17 26 C15.75 22.9375 15.75 22.9375 15 20 C13.783125 20.0825 12.56625 20.165 11.3125 20.25 C6.9346242 20.28846991 5.36634268 18.74622693 2 16 C-1.18444653 15.82202611 -1.18444653 15.82202611 -4 17 C-5.43637698 18.95163118 -5.43637698 18.95163118 -6 21 C-7.27875 20.95875 -8.5575 20.9175 -9.875 20.875 C-12.01871492 20.75787127 -12.01871492 20.75787127 -14 21 C-16.23845015 22.82915641 -16.23845015 22.82915641 -16.3125 25.5 C-16.539375 26.325 -16.76625 27.15 -17 28 C-19.5625 29.3125 -19.5625 29.3125 -22 30 C-22.144375 31.299375 -22.28875 32.59875 -22.4375 33.9375 C-22.875 37.875 -22.875 37.875 -24 39 C-24.04063832 40.66617115 -24.042721 42.33388095 -24 44 C-22.9275 44 -21.855 44 -20.75 44 C-18.16666667 44 -15.58333333 44 -13 44 C-13.33 44.66 -13.66 45.32 -14 46 C-14.66 46 -15.32 46 -16 46 C-15.979375 47.093125 -15.95875 48.18625 -15.9375 49.3125 C-16 53 -16 53 -17 56 C-15.35333797 55.8864371 -13.70763918 55.75882619 -12.0625 55.625 C-11.14597656 55.55539063 -10.22945312 55.48578125 -9.28515625 55.4140625 C-8.15400391 55.20910156 -8.15400391 55.20910156 -7 55 C-6.505 54.01 -6.505 54.01 -6 53 C-8.97 52.67 -11.94 52.34 -15 52 C-15 51.67 -15 51.34 -15 51 C-12.03 51 -9.06 51 -6 51 C-6.33 49.35 -6.66 47.7 -7 46 C-3.04 46 0.92 46 5 46 C5 48.97 5 51.94 5 55 C8.96 55.33 12.92 55.66 17 56 C17 55.01 17 54.02 17 53 C14.69 52.67 12.38 52.34 10 52 C10 51.67 10 51.34 10 51 C11.98 51 13.96 51 16 51 C15.73606499 47.56769552 15.73606499 47.56769552 15 44 C14.01 43.34 13.02 42.68 12 42 C12.495 41.01 12.495 41.01 13 40 C13.66 40 14.32 40 15 40 C15 40.66 15 41.32 15 42 C16.46015291 41.71758359 17.91809793 41.42373386 19.375 41.125 C20.59316406 40.88136719 20.59316406 40.88136719 21.8359375 40.6328125 C24.18673923 40.13341068 24.18673923 40.13341068 26 38 C28.4375 37.875 28.4375 37.875 31 38 C31.99 38 32.98 38 34 38 C35.97179598 35.04230603 36.36929854 33.83582038 36.75 30.4375 C36.84796875 29.65246094 36.9459375 28.86742187 37.046875 28.05859375 C37.2319392 25.77138813 37.2319392 25.77138813 35 24 C36.65 24.33 38.3 24.66 40 25 C39.65643832 34.80868602 39.65643832 34.80868602 37.3125 39.0625 C35 41 35 41 31.875 41.75 C30.92625 42.1625 29.9775 42.575 29 43 C28.35240631 44.95568942 28.35240631 44.95568942 28.0625 47.25 C27.28122174 51.68680037 26.14728963 54.1916264 22.546875 56.9765625 C16.78491795 59.29195015 10.08032623 58.55984356 4 58 C3 57 3 57 2.90234375 55.15234375 C2.93489583 53.1015625 2.96744792 51.05078125 3 49 C1.02 49 -0.96 49 -3 49 C-3 51.64 -3 54.28 -3 57 C-6.06533164 58.53266582 -9.26754272 58.10276471 -12.625 58.0625 C-13.33140625 58.05798828 -14.0378125 58.05347656 -14.765625 58.04882812 C-16.51045275 58.03703875 -18.255237 58.01910324 -20 58 C-21.31223496 54.06329512 -20.24296256 51.87511856 -19 48 C-20.670625 47.814375 -20.670625 47.814375 -22.375 47.625 C-26 47 -26 47 -28 45 C-30.00879584 44.77320047 -32.01766519 44.54696477 -34.02734375 44.328125 C-36.79022212 43.86855711 -38.16859464 43.12443021 -40 41 C-40.875 37.9375 -40.875 37.9375 -41 35 C-39 33 -39 33 -36.375 32.875 C-35.59125 32.91625 -34.8075 32.9575 -34 33 C-34 31.35 -34 29.7 -34 28 C-29.545 28.99 -29.545 28.99 -25 30 C-24.67 29.01 -24.34 28.02 -24 27 C-23.01 26.34 -22.02 25.68 -21 25 C-20.525625 24.195625 -20.05125 23.39125 -19.5625 22.5625 C-17.91734525 19.86444622 -16.74657535 18.53485093 -14 17 C-11.25 16.8125 -11.25 16.8125 -9 17 C-9 16.34 -9 15.68 -9 15 C-9.928125 15.061875 -10.85625 15.12375 -11.8125 15.1875 C-15 15 -15 15 -16.875 13.8125 C-18.51651306 11.16784006 -18.71370414 10.0689278 -18 7 C-12.90789138 1.20897451 -7.73621449 -1.93405362 0 0 Z " fill="#F5AB43" transform="translate(68,111)"/>
<path d="M0 0 C9.24 0 18.48 0 28 0 C28 9.24 28 18.48 28 28 C18.76 28 9.52 28 0 28 C0 18.76 0 9.52 0 0 Z " fill="#FEFDFC" transform="translate(150,209)"/>
<path d="M0 0 C9.24 0 18.48 0 28 0 C28 9.24 28 18.48 28 28 C18.76 28 9.52 28 0 28 C0 18.76 0 9.52 0 0 Z " fill="#FEFDFC" transform="translate(150,180)"/>
<path d="M0 0 C9.24 0 18.48 0 28 0 C28 9.24 28 18.48 28 28 C18.76 28 9.52 28 0 28 C0 18.76 0 9.52 0 0 Z " fill="#FEFDFC" transform="translate(120,180)"/>
<path d="M0 0 C9.24 0 18.48 0 28 0 C28 9.24 28 18.48 28 28 C18.76 28 9.52 28 0 28 C0 18.76 0 9.52 0 0 Z " fill="#FEFAF6" transform="translate(299,150)"/>
<path d="M0 0 C9.24 0 18.48 0 28 0 C28 9.24 28 18.48 28 28 C18.76 28 9.52 28 0 28 C0 18.76 0 9.52 0 0 Z " fill="#FEFBF7" transform="translate(150,150)"/>
<path d="M0 0 C9.24 0 18.48 0 28 0 C28 9.24 28 18.48 28 28 C18.76 28 9.52 28 0 28 C0 18.76 0 9.52 0 0 Z " fill="#FEFDFC" transform="translate(299,31)"/>
<path d="M0 0 C9.24 0 18.48 0 28 0 C28 9.24 28 18.48 28 28 C18.76 28 9.52 28 0 28 C0 18.76 0 9.52 0 0 Z " fill="#FEFDFC" transform="translate(299,1)"/>
<path d="M0 0 C9.24 0 18.48 0 28 0 C28 9.24 28 18.48 28 28 C23.565625 28.020625 19.13125 28.04125 14.5625 28.0625 C13.16201416 28.071604 11.76152832 28.08070801 10.31860352 28.09008789 C9.22475342 28.09258545 8.13090332 28.09508301 7.00390625 28.09765625 C5.87799072 28.10289307 4.7520752 28.10812988 3.59204102 28.11352539 C1 28 1 28 0 27 C-0.08758003 25.00035018 -0.10696576 22.9976389 -0.09765625 20.99609375 C-0.09515869 19.90224365 -0.09266113 18.80839355 -0.09008789 17.68139648 C-0.08098389 16.28091064 -0.07187988 14.8804248 -0.0625 13.4375 C-0.041875 9.003125 -0.02125 4.56875 0 0 Z " fill="#FEFDFC" transform="translate(269,31)"/>
<path d="M0 0 C8.91 0 17.82 0 27 0 C27 9.24 27 18.48 27 28 C18.09 28 9.18 28 0 28 C0 18.76 0 9.52 0 0 Z " fill="#FEFDFC" transform="translate(240,239)"/>
<path d="M0 0 C9.24 0 18.48 0 28 0 C28 8.91 28 17.82 28 27 C18.76 27 9.52 27 0 27 C0 18.09 0 9.18 0 0 Z " fill="#FEFDFC" transform="translate(210,210)"/>
<path d="M0 0 C9.24 0 18.48 0 28 0 C28 8.91 28 17.82 28 27 C18.76 27 9.52 27 0 27 C0 18.09 0 9.18 0 0 Z " fill="#FEFDFC" transform="translate(180,210)"/>
<path d="M0 0 C9.24 0 18.48 0 28 0 C28 8.91 28 17.82 28 27 C18.76 27 9.52 27 0 27 C0 18.09 0 9.18 0 0 Z " fill="#FEFDFC" transform="translate(299,61)"/>
<path d="M0 0 C9.24 0 18.48 0 28 0 C28 8.91 28 17.82 28 27 C18.76 27 9.52 27 0 27 C0 18.09 0 9.18 0 0 Z " fill="#FEFDFC" transform="translate(210,61)"/>
<path d="M0 0 C9.24 0 18.48 0 28 0 C28 8.91 28 17.82 28 27 C18.76 27 9.52 27 0 27 C0 18.09 0 9.18 0 0 Z " fill="#FEFDFC" transform="translate(1,61)"/>
<path d="M0 0 C8.91 0 17.82 0 27 0 C27 9.24 27 18.48 27 28 C18.09 28 9.18 28 0 28 C0 18.76 0 9.52 0 0 Z " fill="#FEFDFC" transform="translate(270,1)"/>
<path d="M0 0 C8.91 0 17.82 0 27 0 C27 9.24 27 18.48 27 28 C18.09 28 9.18 28 0 28 C0 18.76 0 9.52 0 0 Z " fill="#FEFDFC" transform="translate(240,1)"/>
<path d="M0 0 C6.6515625 -0.0309375 6.6515625 -0.0309375 13.4375 -0.0625 C14.83798584 -0.071604 16.23847168 -0.08070801 17.68139648 -0.09008789 C19.32217163 -0.09383423 19.32217163 -0.09383423 20.99609375 -0.09765625 C22.12200928 -0.10289307 23.2479248 -0.10812988 24.40795898 -0.11352539 C27 0 27 0 28 1 C28.41809163 4.38335876 28.46481532 7.78216659 28.5625 11.1875 C28.62501953 12.13431641 28.68753906 13.08113281 28.75195312 14.05664062 C28.84099556 17.92324102 28.86972466 20.80116661 26.54833984 24.00097656 C21.26795801 28.52548919 16.19514035 28.75151834 9.5 28.375 C6.365 28.25125 3.23 28.1275 0 28 C0 18.76 0 9.52 0 0 Z " fill="#FEFDFC" transform="translate(31,90)"/>
<path d="M0 0 C9.24 0 18.48 0 28 0 C28 8.58 28 17.16 28 26 C24.04 26 20.08 26 16 26 C15.67 26.66 15.34 27.32 15 28 C12.68756208 28.02685412 10.3750373 28.04632841 8.0625 28.0625 C6.77472656 28.07410156 5.48695313 28.08570312 4.16015625 28.09765625 C1 28 1 28 0 27 C-0.08758003 25.00035018 -0.10696576 22.9976389 -0.09765625 20.99609375 C-0.09515869 19.90224365 -0.09266113 18.80839355 -0.09008789 17.68139648 C-0.08098389 16.28091064 -0.07187988 14.8804248 -0.0625 13.4375 C-0.041875 9.003125 -0.02125 4.56875 0 0 Z " fill="#FEFDFB" transform="translate(180,90)"/>
<path d="M0 0 C9.24 0 18.48 0 28 0 C28 2.64 28 5.28 28 8 C27.01 8.33 26.02 8.66 25 9 C24.34 12.3 23.68 15.6 23 19 C23.66 19 24.32 19 25 19 C25 18.34 25 17.68 25 17 C25.99 17 26.98 17 28 17 C28 20.63 28 24.26 28 28 C18.76 28 9.52 28 0 28 C0 18.76 0 9.52 0 0 Z " fill="#FEFBF7" transform="translate(120,150)"/>
<path d="M0 0 C8.91 0 17.82 0 27 0 C27 8.91 27 17.82 27 27 C18.09 27 9.18 27 0 27 C0 18.09 0 9.18 0 0 Z " fill="#FFFEFD" transform="translate(61,240)"/>
<path d="M0 0 C8.91 0 17.82 0 27 0 C27 8.91 27 17.82 27 27 C18.09 27 9.18 27 0 27 C0 18.09 0 9.18 0 0 Z " fill="#FFFEFD" transform="translate(121,210)"/>
<path d="M0 0 C8.91 0 17.82 0 27 0 C27 8.91 27 17.82 27 27 C18.09 27 9.18 27 0 27 C0 18.09 0 9.18 0 0 Z " fill="#FFFEFD" transform="translate(91,210)"/>
<path d="M0 0 C8.91 0 17.82 0 27 0 C27 8.91 27 17.82 27 27 C18.09 27 9.18 27 0 27 C0 18.09 0 9.18 0 0 Z " fill="#FFFEFD" transform="translate(61,210)"/>
<path d="M0 0 C8.91 0 17.82 0 27 0 C27 8.91 27 17.82 27 27 C18.09 27 9.18 27 0 27 C0 18.09 0 9.18 0 0 Z " fill="#FFFEFD" transform="translate(300,180)"/>
<path d="M0 0 C8.91 0 17.82 0 27 0 C27 8.91 27 17.82 27 27 C18.09 27 9.18 27 0 27 C0 18.09 0 9.18 0 0 Z " fill="#FFFEFD" transform="translate(240,180)"/>
<path d="M0 0 C8.91 0 17.82 0 27 0 C27 8.91 27 17.82 27 27 C18.09 27 9.18 27 0 27 C0 18.09 0 9.18 0 0 Z " fill="#FFFEFD" transform="translate(210,180)"/>
<path d="M0 0 C8.91 0 17.82 0 27 0 C27 8.91 27 17.82 27 27 C18.09 27 9.18 27 0 27 C0 18.09 0 9.18 0 0 Z " fill="#FFFEFD" transform="translate(61,180)"/>
<path d="M0 0 C8.91 0 17.82 0 27 0 C27 8.91 27 17.82 27 27 C18.09 27 9.18 27 0 27 C0 18.09 0 9.18 0 0 Z " fill="#FFFEFD" transform="translate(31,180)"/>
<path d="M0 0 C9.24 0 18.48 0 28 0 C28 7.92 28 15.84 28 24 C23 26 23 26 20 26 C20 26.66 20 27.32 20 28 C13.9453125 28.1953125 13.9453125 28.1953125 12 28 C11.34 27.34 10.68 26.68 10 26 C6.7 25.67 3.4 25.34 0 25 C0 16.75 0 8.5 0 0 Z " fill="#FEFDFB" transform="translate(210,90)"/>
<path d="M0 0 C8.91 0 17.82 0 27 0 C27 8.91 27 17.82 27 27 C18.09 27 9.18 27 0 27 C0 18.09 0 9.18 0 0 Z " fill="#FFFEFD" transform="translate(270,61)"/>
<path d="M0 0 C8.91 0 17.82 0 27 0 C27 8.91 27 17.82 27 27 C18.09 27 9.18 27 0 27 C0 18.09 0 9.18 0 0 Z " fill="#FFFEFD" transform="translate(240,61)"/>
<path d="M0 0 C8.91 0 17.82 0 27 0 C27 8.91 27 17.82 27 27 C18.09 27 9.18 27 0 27 C0 18.09 0 9.18 0 0 Z " fill="#FFFEFD" transform="translate(121,61)"/>
<path d="M0 0 C8.91 0 17.82 0 27 0 C27 8.91 27 17.82 27 27 C18.09 27 9.18 27 0 27 C0 18.09 0 9.18 0 0 Z " fill="#FFFEFD" transform="translate(91,61)"/>
<path d="M0 0 C8.91 0 17.82 0 27 0 C27 8.91 27 17.82 27 27 C18.09 27 9.18 27 0 27 C0 18.09 0 9.18 0 0 Z " fill="#FFFEFD" transform="translate(61,61)"/>
<path d="M0 0 C8.91 0 17.82 0 27 0 C27 8.91 27 17.82 27 27 C18.09 27 9.18 27 0 27 C0 18.09 0 9.18 0 0 Z " fill="#FFFEFD" transform="translate(240,31)"/>
<path d="M0 0 C8.91 0 17.82 0 27 0 C27 8.91 27 17.82 27 27 C18.09 27 9.18 27 0 27 C0 18.09 0 9.18 0 0 Z " fill="#FFFEFD" transform="translate(210,31)"/>
<path d="M0 0 C8.91 0 17.82 0 27 0 C27 8.91 27 17.82 27 27 C18.09 27 9.18 27 0 27 C0 18.09 0 9.18 0 0 Z " fill="#FFFEFD" transform="translate(31,31)"/>
<path d="M0 0 C9.24 0 18.48 0 28 0 C28 8.58 28 17.16 28 26 C20.74 26 13.48 26 6 26 C5.67 26.66 5.34 27.32 5 28 C3.35 28 1.7 28 0 28 C0 18.76 0 9.52 0 0 Z " fill="#FEFCFA" transform="translate(120,90)"/>
<path d="M0 0 C9.24 0 18.48 0 28 0 C28 9.24 28 18.48 28 28 C21.73 28 15.46 28 9 28 C8.34 26.02 7.68 24.04 7 22 C4.69 21.34 2.38 20.68 0 20 C0 13.4 0 6.8 0 0 Z " fill="#FEFDFB" transform="translate(61,90)"/>
<path d="M0 0 C9.24 0 18.48 0 28 0 C28 9.24 28 18.48 28 28 C18.76 28 9.52 28 0 28 C0 25.36 0 22.72 0 20 C0.99 19.67 1.98 19.34 3 19 C3.73323796 16.98491642 3.73323796 16.98491642 4 15 C4.66 15 5.32 15 6 15 C6 16.32 6 17.64 6 19 C6.99 18.67 7.98 18.34 9 18 C9.80563638 15.89415562 9.80563638 15.89415562 10.1875 13.4375 C10.42533203 12.19806641 10.42533203 12.19806641 10.66796875 10.93359375 C10.77753906 10.29550781 10.88710937 9.65742188 11 9 C10.34 9 9.68 9 9 9 C8.67 10.32 8.34 11.64 8 13 C7.34 12.01 6.68 11.02 6 10 C5.01 9.67 4.02 9.34 3 9 C3 9.66 3 10.32 3 11 C2.34 11 1.68 11 1 11 C0 8 0 8 0 0 Z " fill="#FDF8F0" transform="translate(210,150)"/>
<path d="M0 0 C9.24 0 18.48 0 28 0 C28 7.59 28 15.18 28 23 C26.68 23 25.36 23 24 23 C23.67 24.32 23.34 25.64 23 27 C20.36 27 17.72 27 15 27 C15 26.01 15 25.02 15 24 C10.05 23.67 5.1 23.34 0 23 C0 15.41 0 7.82 0 0 Z " fill="#FEFDFC" transform="translate(239,91)"/>
<path d="M0 0 C8.91 0 17.82 0 27 0 C27.061875 3.898125 27.12375 7.79625 27.1875 11.8125 C27.21481201 13.03815674 27.24212402 14.26381348 27.27026367 15.52661133 C27.27775635 16.4936499 27.28524902 17.46068848 27.29296875 18.45703125 C27.3086792 19.44678955 27.32438965 20.43654785 27.34057617 21.45629883 C27 24 27 24 25.63232422 25.83740234 C23.28724287 27.50765023 21.7510612 27.16471311 18.9375 26.8125 C17.62072266 26.66748047 17.62072266 26.66748047 16.27734375 26.51953125 C14 26 14 26 12 24 C8.01061087 23.41430021 4.02813544 23.25711503 0 23 C0 15.41 0 7.82 0 0 Z " fill="#FEFDFC" transform="translate(270,91)"/>
<path d="M0 0 C1.13953125 -0.02578125 2.2790625 -0.0515625 3.453125 -0.078125 C7.06848819 0.28169788 8.91635714 1.00388309 11.75 3.25 C12.91743282 7.91973127 12.75 12.46098203 12.75 17.25 C13.08 17.91 13.41 18.57 13.75 19.25 C14.15417552 22.21395382 14.31382171 24.33904926 12.703125 26.94140625 C10.90636794 29.13450678 9.30808759 30.9709562 6.75 32.25 C4.5427077 32.32092842 2.33332548 32.33415025 0.125 32.3125 C-1.06351563 32.30347656 -2.25203125 32.29445312 -3.4765625 32.28515625 C-4.39179688 32.27355469 -5.30703125 32.26195312 -6.25 32.25 C-7.67917743 29.39164514 -7.37980809 26.93742281 -7.3828125 23.74609375 C-7.38410156 22.44865234 -7.38539063 21.15121094 -7.38671875 19.81445312 C-7.38462402 19.13777588 -7.3825293 18.46109863 -7.38037109 17.76391602 C-7.37501202 15.69214585 -7.38032518 13.62059161 -7.38671875 11.54882812 C-7.38542969 10.25267578 -7.38414062 8.95652344 -7.3828125 7.62109375 C-7.38168457 6.42411865 -7.38055664 5.22714355 -7.37939453 3.99389648 C-7.14160601 -1.04856622 -4.46903977 0.06012161 0 0 Z " fill="#F4A434" transform="translate(138.25,114.75)"/>
<path d="M0 0 C1.22265625 2.109375 1.22265625 2.109375 2 4 C0.96875 3.34 -0.0625 2.68 -1.125 2 C-7.06203748 -1.02190936 -13.5028569 -0.52011251 -20 0 C-20.99 0.495 -20.99 0.495 -22 1 C-22 2.32 -22 3.64 -22 5 C-20.68 5 -19.36 5 -18 5 C-18.33 6.65 -18.66 8.3 -19 10 C-17.02 10 -15.04 10 -13 10 C-13 8.35 -13 6.7 -13 5 C-11.35 4.67 -9.7 4.34 -8 4 C-8 4.66 -8 5.32 -8 6 C-8.99 6 -9.98 6 -11 6 C-11 7.32 -11 8.64 -11 10 C-9.68 10.33 -8.36 10.66 -7 11 C-12.37330889 14.39366878 -16.86946489 14.32712342 -23 14 C-22.67 15.65 -22.34 17.3 -22 19 C-19.95863605 19.05451714 -17.91684144 19.09302485 -15.875 19.125 C-14.73804687 19.14820313 -13.60109375 19.17140625 -12.4296875 19.1953125 C-8.94040199 18.99660604 -6.28183302 18.13166656 -3 17 C-0.625 17.875 -0.625 17.875 1 19 C1.04241723 21.33294775 1.04092937 23.66702567 1 26 C0.505 26.495 0.505 26.495 0 27 C0.66 27.33 1.32 27.66 2 28 C2 28.99 2 29.98 2 31 C0.37509046 31.02698189 -1.24994633 31.04638757 -2.875 31.0625 C-3.77992187 31.07410156 -4.68484375 31.08570313 -5.6171875 31.09765625 C-8 31 -8 31 -10 30 C-10 27.03 -10 24.06 -10 21 C-13.63 21.33 -17.26 21.66 -21 22 C-21 23.32 -21 24.64 -21 26 C-22.65 26.33 -24.3 26.66 -26 27 C-24.35 27.33 -22.7 27.66 -21 28 C-21.33 28.99 -21.66 29.98 -22 31 C-25.3 31 -28.6 31 -32 31 C-31.25 21.25 -31.25 21.25 -29 19 C-29.99 19.33 -30.98 19.66 -32 20 C-35.625 20.125 -35.625 20.125 -39 20 C-40 19 -40 19 -40.25 16.625 C-40 14 -40 14 -38.75 12.25 C-36.83141429 10.87958164 -35.30908032 10.3981173 -33 10 C-33 9.29875 -33 8.5975 -33 7.875 C-31.42691447 3.35237909 -28.01912601 1.38838548 -24 -1 C-15.72835627 -4.30865749 -7.92001175 -3.89053209 0 0 Z " fill="#F5CFA0" transform="translate(83,136)"/>
<path d="M0 0 C0 9.24 0 18.48 0 28 C-4.434375 28.020625 -8.86875 28.04125 -13.4375 28.0625 C-14.83798584 28.071604 -16.23847168 28.08070801 -17.68139648 28.09008789 C-18.77524658 28.09258545 -19.86909668 28.09508301 -20.99609375 28.09765625 C-22.12200928 28.10289307 -23.2479248 28.10812988 -24.40795898 28.11352539 C-27 28 -27 28 -28 27 C-28.51011313 21.81384985 -28.51011313 21.81384985 -28 19 C-25.5625 16.625 -25.5625 16.625 -23 15 C-22.67 14.34 -22.34 13.68 -22 13 C-20.35178756 11.96986723 -18.68496298 10.96885372 -17 10 C-16.67 9.67 -16.34 9.34 -16 9 C-16.061875 8.05125 -16.12375 7.1025 -16.1875 6.125 C-16.125625 5.09375 -16.06375 4.0625 -16 3 C-12 0 -12 0 0 0 Z " fill="#FEFDFC" transform="translate(118,150)"/>
<path d="M0 0 C18.81 0 37.62 0 57 0 C57 3.3 57 6.6 57 10 C38.19 10 19.38 10 0 10 C0 6.7 0 3.4 0 0 Z " fill="#FEFDFC" transform="translate(240,269)"/>
<path d="M0 0 C18.81 0 37.62 0 57 0 C57 3.3 57 6.6 57 10 C38.19 10 19.38 10 0 10 C0 6.7 0 3.4 0 0 Z " fill="#FEFDFC" transform="translate(61,269)"/>
<path d="M0 0 C6.6 0 13.2 0 20 0 C20 9.24 20 18.48 20 28 C13.4 28 6.8 28 0 28 C0 18.76 0 9.52 0 0 Z " fill="#FEFDFC" transform="translate(329,239)"/>
<path d="M0 0 C6.6 0 13.2 0 20 0 C20 9.24 20 18.48 20 28 C13.4 28 6.8 28 0 28 C0 18.76 0 9.52 0 0 Z " fill="#FEFDFC" transform="translate(329,150)"/>
<path d="M0 0 C6.6 0 13.2 0 20 0 C20 9.24 20 18.48 20 28 C13.4 28 6.8 28 0 28 C0 18.76 0 9.52 0 0 Z " fill="#FEFDFC" transform="translate(329,120)"/>
<path d="M0 0 C6.6 0 13.2 0 20 0 C20 9.24 20 18.48 20 28 C13.4 28 6.8 28 0 28 C0 18.76 0 9.52 0 0 Z " fill="#FEFDFC" transform="translate(329,90)"/>
<path d="M0 0 C6.6 0 13.2 0 20 0 C20 9.24 20 18.48 20 28 C13.4 28 6.8 28 0 28 C0 18.76 0 9.52 0 0 Z " fill="#FEFDFC" transform="translate(329,1)"/>
<path d="M0 0 C6.6 0 13.2 0 20 0 C20 8.91 20 17.82 20 27 C13.4 27 6.8 27 0 27 C0 18.09 0 9.18 0 0 Z " fill="#FEFDFC" transform="translate(329,61)"/>
<path d="M0 0 C6.6 0 13.2 0 20 0 C20 8.91 20 17.82 20 27 C13.4 27 6.8 27 0 27 C0 18.09 0 9.18 0 0 Z " fill="#FEFDFC" transform="translate(329,31)"/>
<path d="M0 0 C1.84851563 -0.05607422 1.84851563 -0.05607422 3.734375 -0.11328125 C7.85020535 0.38519154 9.45691441 1.28360043 12.25 4.3125 C13.13184937 7.37432483 12.8754115 10.20204632 12.25 13.3125 C10.25 16.375 10.25 16.375 8.25 18.3125 C9.57 18.9725 10.89 19.6325 12.25 20.3125 C12.25 23.9425 12.25 27.5725 12.25 31.3125 C10.6 31.6425 8.95 31.9725 7.25 32.3125 C4.75494038 29.81744038 4.89051624 28.63921112 4.625 25.1875 C4.55023438 24.27742188 4.47546875 23.36734375 4.3984375 22.4296875 C4.34945313 21.73101562 4.30046875 21.03234375 4.25 20.3125 C2.6 19.9825 0.95 19.6525 -0.75 19.3125 C-0.73839844 20.09496094 -0.72679687 20.87742188 -0.71484375 21.68359375 C-0.70582031 22.69550781 -0.69679688 23.70742187 -0.6875 24.75 C-0.67589844 25.75933594 -0.66429687 26.76867187 -0.65234375 27.80859375 C-0.75 30.3125 -0.75 30.3125 -1.75 31.3125 C-3.74958364 31.35330783 -5.75045254 31.35504356 -7.75 31.3125 C-7.77465622 27.05835377 -7.79283899 22.80424502 -7.80493164 18.55004883 C-7.80997101 17.10179927 -7.81680253 15.65355483 -7.82543945 14.20532227 C-7.83752247 12.12775412 -7.84323211 10.05025303 -7.84765625 7.97265625 C-7.85289307 6.72105713 -7.85812988 5.46945801 -7.86352539 4.17993164 C-7.65327415 -1.13060781 -4.69855281 0.09260633 0 0 Z " fill="#F4A535" transform="translate(275.75,114.6875)"/>
<path d="M0 0 C1.98 0 3.96 0 6 0 C5.18784945 2.60427612 4.37529393 5.20842468 3.5625 7.8125 C3.33240234 8.55048828 3.10230469 9.28847656 2.86523438 10.04882812 C1.9312816 13.04018411 0.99100896 16.02697312 0 19 C-0.0685495 20.89470816 -0.08480372 22.7916834 -0.0625 24.6875 C-0.05347656 25.68136719 -0.04445312 26.67523438 -0.03515625 27.69921875 C-0.02355469 28.45847656 -0.01195312 29.21773437 0 30 C1.65 30 3.3 30 5 30 C5.33 28.02 5.66 26.04 6 24 C6.99 24 7.98 24 9 24 C9.33 26.64 9.66 29.28 10 32 C11.485 32.495 11.485 32.495 13 33 C3.76 33 -5.48 33 -15 33 C-14.70703125 29.41927083 -14.4140625 25.83854167 -14.12109375 22.2578125 C-13.74316633 19.11356058 -13.74316633 19.11356058 -15 17 C-15.13996069 12.33091139 -15.04247285 7.67201378 -15 3 C-10.38 3 -5.76 3 -1 3 C-0.67 2.01 -0.34 1.02 0 0 Z " fill="#FDFBF9" transform="translate(165,115)"/>
<path d="M0 0 C2.0078125 0.42578125 2.0078125 0.42578125 3.62890625 2.078125 C8.99832887 11.2198332 9.56621933 21.07974364 9.0078125 31.42578125 C7.34169345 31.46850225 5.67398365 31.46641957 4.0078125 31.42578125 C3.0078125 30.42578125 3.0078125 30.42578125 2.9453125 27.36328125 C2.97625 25.90921875 2.97625 25.90921875 3.0078125 24.42578125 C0.0378125 24.42578125 -2.9321875 24.42578125 -5.9921875 24.42578125 C-5.9715625 25.39515625 -5.9509375 26.36453125 -5.9296875 27.36328125 C-5.9921875 30.42578125 -5.9921875 30.42578125 -6.9921875 31.42578125 C-9.4921875 31.55078125 -9.4921875 31.55078125 -11.9921875 31.42578125 C-13.59526747 29.82270128 -13.31764597 28.21892622 -13.4296875 25.98828125 C-13.40416061 16.32635461 -10.63387221 0.56897102 0 0 Z " fill="#F5A433" transform="translate(176.9921875,114.57421875)"/>
<path d="M0 0 C19.03719568 -0.13621948 37.9789754 0.17252051 57 1 C57 1.33 57 1.66 57 2 C47.76 2 38.52 2 29 2 C29 11.24 29 20.48 29 30 C30.65 30 32.3 30 34 30 C34.495 28.515 34.495 28.515 35 27 C36.98 27 38.96 27 41 27 C41 37.56 41 48.12 41 59 C39.02 59 37.04 59 35 59 C33.6691089 56.33821779 33.88731007 54.31260604 33.90234375 51.3359375 C33.90556641 50.21445313 33.90878906 49.09296875 33.91210938 47.9375 C33.92467773 46.1740625 33.92467773 46.1740625 33.9375 44.375 C33.94201172 43.19164062 33.94652344 42.00828125 33.95117188 40.7890625 C33.96298522 37.85935361 33.9809211 34.92967059 34 32 C29.38 32 24.76 32 20 32 C20.061875 33.340625 20.12375 34.68125 20.1875 36.0625 C20.20985961 40.77292406 19.12771469 43.8332254 17 48 C15.35 47.67 13.7 47.34 12 47 C13 42 14 37 15 32 C10.05 32 5.1 32 0 32 C0 31.34 0 30.68 0 30 C8.91 30 17.82 30 27 30 C27 20.76 27 11.52 27 2 C18.09 2 9.18 2 0 2 C0 1.34 0 0.68 0 0 Z " fill="#F0E5DE" transform="translate(91,88)"/>
<path d="M0 0 C0 3.96 0 7.92 0 12 C1.32 12 2.64 12 4 12 C4.1546875 10.9790625 4.1546875 10.9790625 4.3125 9.9375 C5.16022445 6.31540461 6.233109 3.28136901 8 0 C10.625 -1 10.625 -1 13 -1 C14 0 14 0 14.25 2.75 C14 6 14 6 12.4375 8.5625 C10.74358775 10.90737163 10.74358775 10.90737163 11.1875 13.625 C11.96244996 16.2204806 11.96244996 16.2204806 14 19 C14.44921875 21.4453125 14.44921875 21.4453125 14.6875 24.125 C14.77386719 25.01445312 14.86023438 25.90390625 14.94921875 26.8203125 C14.96597656 27.53960937 14.98273438 28.25890625 15 29 C14 30 14 30 11.0625 30.125 C8 30 8 30 6 29 C6 25.37 6 21.74 6 18 C4.02 18 2.04 18 0 18 C0.01160156 18.78246094 0.02320313 19.56492188 0.03515625 20.37109375 C0.04417969 21.38300781 0.05320313 22.39492187 0.0625 23.4375 C0.07410156 24.44683594 0.08570313 25.45617187 0.09765625 26.49609375 C0 29 0 29 -1 30 C-3.5 30.125 -3.5 30.125 -6 30 C-7 29 -7 29 -7.11352539 26.22436523 C-7.10828857 25.01466064 -7.10305176 23.80495605 -7.09765625 22.55859375 C-7.09443359 21.25341797 -7.09121094 19.94824219 -7.08789062 18.60351562 C-7.07953401 17.2148431 -7.07106905 15.82617123 -7.0625 14.4375 C-7.05748666 13.04492344 -7.05292347 11.65234519 -7.04882812 10.25976562 C-7.03699434 6.8398013 -7.0205088 3.41992156 -7 0 C-5 -1 -5 -1 0 0 Z " fill="#F5A73A" transform="translate(207,116)"/>
<path d="M0 0 C9.57446809 1.06382979 9.57446809 1.06382979 13 4 C15.64934822 4.71433121 15.64934822 4.71433121 18 5 C17.67 7.97 17.34 10.94 17 14 C20.63 14.66 24.26 15.32 28 16 C28 18.64 28 21.28 28 24 C18.76 24 9.52 24 0 24 C0 16.08 0 8.16 0 0 Z " fill="#FEFCFB" transform="translate(31,154)"/>
<path d="M0 0 C0.66 0 1.32 0 2 0 C2 9.24 2 18.48 2 28 C18.5 28 35 28 52 28 C52 28.66 52 29.32 52 30 C45.4 30 38.8 30 32 30 C32 38.91 32 47.82 32 57 C29.2022735 58.39886325 26.87611108 58.12974597 23.75 58.1328125 C22.5021875 58.13410156 21.254375 58.13539063 19.96875 58.13671875 C18.00421875 58.13091797 18.00421875 58.13091797 16 58.125 C14.03546875 58.13080078 14.03546875 58.13080078 12.03125 58.13671875 C10.15953125 58.13478516 10.15953125 58.13478516 8.25 58.1328125 C7.10015625 58.13168457 5.9503125 58.13055664 4.765625 58.12939453 C2 58 2 58 0 57 C0 48.09 0 39.18 0 30 C-8.91 30 -17.82 30 -27 30 C-27 29.34 -27 28.68 -27 28 C-18.09 28 -9.18 28 0 28 C0 25.03 0 22.06 0 19 C-1.134375 19.020625 -2.26875 19.04125 -3.4375 19.0625 C-7 19 -7 19 -8 18 C-8.1328125 16.1875 -8.1328125 16.1875 -8.125 14 C-8.12886719 12.9171875 -8.12886719 12.9171875 -8.1328125 11.8125 C-8 10 -8 10 -7 9 C-4.66702567 8.95907063 -2.33294775 8.95758277 0 9 C0 6.03 0 3.06 0 0 Z M3 30 C3 38.91 3 47.82 3 57 C11.91 57 20.82 57 30 57 C30 48.09 30 39.18 30 30 C21.09 30 12.18 30 3 30 Z " fill="#EFEEED" transform="translate(297,150)"/>
<path d="M0 0 C2.475 0.495 2.475 0.495 5 1 C4.65643832 10.80868602 4.65643832 10.80868602 2.3125 15.0625 C0 17 0 17 -3.125 17.75 C-4.07375 18.1625 -5.0225 18.575 -6 19 C-6.64759369 20.95568942 -6.64759369 20.95568942 -6.9375 23.25 C-7.71877826 27.68680037 -8.85271037 30.1916264 -12.453125 32.9765625 C-18.21508205 35.29195015 -24.91967377 34.55984356 -31 34 C-32 33 -32 33 -32.09765625 31.15234375 C-32.06510417 29.1015625 -32.03255208 27.05078125 -32 25 C-33.98 25 -35.96 25 -38 25 C-38 27.64 -38 30.28 -38 33 C-41.06533164 34.53266582 -44.26754272 34.10276471 -47.625 34.0625 C-48.33140625 34.05798828 -49.0378125 34.05347656 -49.765625 34.04882812 C-51.51045275 34.03703875 -53.255237 34.01910324 -55 34 C-55.495 32.515 -55.495 32.515 -56 31 C-55.34 30.34 -54.68 29.68 -54 29 C-53.34 29 -52.68 29 -52 29 C-52 29.99 -52 30.98 -52 32 C-50.35333797 31.8864371 -48.70763918 31.75882619 -47.0625 31.625 C-45.68771484 31.52058594 -45.68771484 31.52058594 -44.28515625 31.4140625 C-43.53105469 31.27742188 -42.77695312 31.14078125 -42 31 C-41.67 30.34 -41.34 29.68 -41 29 C-43.97 28.67 -46.94 28.34 -50 28 C-50 27.67 -50 27.34 -50 27 C-47.03 27 -44.06 27 -41 27 C-41.33 25.35 -41.66 23.7 -42 22 C-38.04 22 -34.08 22 -30 22 C-30 24.97 -30 27.94 -30 31 C-26.04 31.33 -22.08 31.66 -18 32 C-18 31.01 -18 30.02 -18 29 C-20.31 28.67 -22.62 28.34 -25 28 C-25 27.67 -25 27.34 -25 27 C-23.02 27 -21.04 27 -19 27 C-19.26393501 23.56769552 -19.26393501 23.56769552 -20 20 C-20.99 19.34 -21.98 18.68 -23 18 C-22.67 17.34 -22.34 16.68 -22 16 C-21.34 16 -20.68 16 -20 16 C-20 16.66 -20 17.32 -20 18 C-18.53984709 17.71758359 -17.08190207 17.42373386 -15.625 17.125 C-14.40683594 16.88136719 -14.40683594 16.88136719 -13.1640625 16.6328125 C-10.81326077 16.13341068 -10.81326077 16.13341068 -9 14 C-6.5625 13.875 -6.5625 13.875 -4 14 C-3.01 14 -2.02 14 -1 14 C0.97179598 11.04230603 1.36929854 9.83582038 1.75 6.4375 C1.84796875 5.65246094 1.9459375 4.86742187 2.046875 4.05859375 C2.2319392 1.77138813 2.2319392 1.77138813 0 0 Z " fill="#F5B459" transform="translate(103,135)"/>
<path d="M0 0 C2.64 0 5.28 0 8 0 C8.33 8.25 8.66 16.5 9 25 C10.65 25.33 12.3 25.66 14 26 C14 26.66 14 27.32 14 28 C4.1 28 -5.8 28 -16 28 C-16 27.67 -16 27.34 -16 27 C-15.08476562 26.93941406 -14.16953125 26.87882812 -13.2265625 26.81640625 C-11.44378906 26.69072266 -11.44378906 26.69072266 -9.625 26.5625 C-7.84996094 26.44068359 -7.84996094 26.44068359 -6.0390625 26.31640625 C-3.08481099 26.18915064 -3.08481099 26.18915064 -1 25 C-1 23.68 -1 22.36 -1 21 C-4.3 20.67 -7.6 20.34 -11 20 C-11 18.02 -11 16.04 -11 14 C-8.36 13.67 -5.72 13.34 -3 13 C-3.62533375 10.47636012 -3.62533375 10.47636012 -5 8 C-7.54775306 7.10613836 -7.54775306 7.10613836 -10 7 C-10 5.35 -10 3.7 -10 2 C-9.04287109 1.90912109 -9.04287109 1.90912109 -8.06640625 1.81640625 C-7.24011719 1.73261719 -6.41382813 1.64882812 -5.5625 1.5625 C-4.73878906 1.48128906 -3.91507813 1.40007812 -3.06640625 1.31640625 C-1.01337975 1.21069185 -1.01337975 1.21069185 0 0 Z " fill="#FEFBF8" transform="translate(254,120)"/>
<path d="M0 0 C1.39456452 0.00667256 2.78911118 0.01863093 4.18359375 0.03515625 C4.89451172 0.03966797 5.60542969 0.04417969 6.33789062 0.04882812 C8.09899388 0.06064761 9.86005411 0.07858362 11.62109375 0.09765625 C12.00328142 1.75380282 12.33504477 3.42222649 12.62109375 5.09765625 C11.62109375 6.09765625 11.62109375 6.09765625 9.3359375 6.1953125 C7.96115234 6.17791016 7.96115234 6.17791016 6.55859375 6.16015625 C5.63949219 6.15113281 4.72039062 6.14210938 3.7734375 6.1328125 C3.06316406 6.12121094 2.35289062 6.10960938 1.62109375 6.09765625 C1.62109375 8.40765625 1.62109375 10.71765625 1.62109375 13.09765625 C4.26109375 13.09765625 6.90109375 13.09765625 9.62109375 13.09765625 C9.95109375 14.74765625 10.28109375 16.39765625 10.62109375 18.09765625 C7.9123004 19.45205293 5.61176107 19.16267076 2.62109375 19.09765625 C2.62109375 21.07765625 2.62109375 23.05765625 2.62109375 25.09765625 C5.92109375 25.09765625 9.22109375 25.09765625 12.62109375 25.09765625 C12.95109375 26.74765625 13.28109375 28.39765625 13.62109375 30.09765625 C9.88430945 32.58884578 7.87657556 32.30417885 3.43359375 32.22265625 C2.16128906 32.20460937 0.88898438 32.1865625 -0.421875 32.16796875 C-1.39769531 32.14476562 -2.37351563 32.1215625 -3.37890625 32.09765625 C-4.80808368 29.23930139 -4.50871434 26.78507906 -4.51171875 23.59375 C-4.51300781 22.29630859 -4.51429688 20.99886719 -4.515625 19.66210938 C-4.51353027 18.98543213 -4.51143555 18.30875488 -4.50927734 17.61157227 C-4.50391827 15.5398021 -4.50923143 13.46824786 -4.515625 11.39648438 C-4.51433594 10.10033203 -4.51304687 8.80417969 -4.51171875 7.46875 C-4.51059082 6.2717749 -4.50946289 5.0747998 -4.50830078 3.84155273 C-4.31781753 -0.19777033 -4.14469913 0.11978899 0 0 Z " fill="#F5A636" transform="translate(240.37890625,114.90234375)"/>
<path d="M0 0 C5.94 0 11.88 0 18 0 C18 0.99 18 1.98 18 3 C21.26545761 4.88391785 24.28111761 5.49287967 28 6 C28 6.66 28 7.32 28 8 C26.906875 8.268125 25.81375 8.53625 24.6875 8.8125 C20.07678984 10.29730497 18.92507292 11.4582118 16.5 15.5 C15.10597789 17.82337019 14.12125094 19.3468872 12 21 C9.73828125 21.07421875 9.73828125 21.07421875 7.3125 20.6875 C6.50425781 20.56761719 5.69601563 20.44773438 4.86328125 20.32421875 C4.24839844 20.21722656 3.63351563 20.11023438 3 20 C2.67 20.99 2.34 21.98 2 23 C1.34 23 0.68 23 0 23 C0 15.41 0 7.82 0 0 Z " fill="#FEFCF9" transform="translate(31,120)"/>
<path d="M0 0 C2.33203125 0.21875 2.33203125 0.21875 5 1 C6.51171875 3.03125 6.51171875 3.03125 7.6875 5.5 C9.15361193 8.91419023 9.15361193 8.91419023 12 11 C12.0825 10.29875 12.165 9.5975 12.25 8.875 C13.17027725 5.34727053 14.88126977 2.93888386 17 0 C19.475 0.495 19.475 0.495 22 1 C21.42796743 5.00422796 20.15424922 7.60291469 18 11 C14.85824599 16.50369319 14.2604839 21.17088956 14.10546875 27.4453125 C14 30 14 30 13 31 C10.5 31.125 10.5 31.125 8 31 C6.25055781 29.25055781 6.91444503 26.56265422 6.875 24.1875 C6.45662135 17.39631794 4.23854339 13.18114542 0.3984375 7.65625 C-1 5 -1 5 -0.7109375 2.15625 C-0.47632813 1.4446875 -0.24171875 0.733125 0 0 Z " fill="#F4A434" transform="translate(301,115)"/>
<path d="M0 0 C1.65 0 3.3 0 5 0 C5 9.24 5 18.48 5 28 C0.71 28 -3.58 28 -8 28 C-8.09267116 17.56787521 -7.68188923 7.98432581 0 0 Z " fill="#FEFAF6" transform="translate(322,120)"/>
<path d="M0 0 C9.24 0 18.48 0 28 0 C28 3.3 28 6.6 28 10 C18.76 10 9.52 10 0 10 C0 6.7 0 3.4 0 0 Z " fill="#FEFDFC" transform="translate(299,269)"/>
<path d="M0 0 C9.24 0 18.48 0 28 0 C28 3.3 28 6.6 28 10 C18.76 10 9.52 10 0 10 C0 6.7 0 3.4 0 0 Z " fill="#FEFDFC" transform="translate(210,269)"/>
<path d="M0 0 C9.24 0 18.48 0 28 0 C28 3.3 28 6.6 28 10 C18.76 10 9.52 10 0 10 C0 6.7 0 3.4 0 0 Z " fill="#FEFDFC" transform="translate(180,269)"/>
<path d="M0 0 C9.24 0 18.48 0 28 0 C28 3.3 28 6.6 28 10 C18.76 10 9.52 10 0 10 C0 6.7 0 3.4 0 0 Z " fill="#FEFDFC" transform="translate(150,269)"/>
<path d="M0 0 C9.24 0 18.48 0 28 0 C28 3.3 28 6.6 28 10 C18.76 10 9.52 10 0 10 C0 6.7 0 3.4 0 0 Z " fill="#FEFDFC" transform="translate(120,269)"/>
<path d="M0 0 C9.24 0 18.48 0 28 0 C28 3.3 28 6.6 28 10 C18.76 10 9.52 10 0 10 C0 6.7 0 3.4 0 0 Z " fill="#FEFDFC" transform="translate(31,269)"/>
<path d="M0 0 C9.24 0 18.48 0 28 0 C28 3.3 28 6.6 28 10 C18.76 10 9.52 10 0 10 C0 6.7 0 3.4 0 0 Z " fill="#FEFDFC" transform="translate(1,269)"/>
<path d="M0 0 C3.96 0 7.92 0 12 0 C12.06058594 1.69769531 12.12117187 3.39539063 12.18359375 5.14453125 C12.26799875 7.36719626 12.35264677 9.58985205 12.4375 11.8125 C12.47681641 12.93205078 12.51613281 14.05160156 12.55664062 15.20507812 C12.61948242 16.81479492 12.61948242 16.81479492 12.68359375 18.45703125 C12.72025146 19.44678955 12.75690918 20.43654785 12.79467773 21.45629883 C12.90790331 24.1218351 12.90790331 24.1218351 14 27 C15.32 27.33 16.64 27.66 18 28 C11.4 28 4.8 28 -2 28 C-2 27.67 -2 27.34 -2 27 C-0.35 26.67 1.3 26.34 3 26 C3.37035262 16.72746783 2.60974269 8.91662085 0 0 Z " fill="#FEFBF9" transform="translate(182,120)"/>
<path d="M0 0 C1.32 0.66 2.64 1.32 4 2 C3.80443367 6.48824721 3.46988076 10.09638315 1.375 14.125 C-1 16 -1 16 -4.625 15.6875 C-5.73875 15.460625 -6.8525 15.23375 -8 15 C-8.66 15.66 -9.32 16.32 -10 17 C-12.1640625 17.4140625 -12.1640625 17.4140625 -14.625 17.625 C-15.44226563 17.69976562 -16.25953125 17.77453125 -17.1015625 17.8515625 C-17.72804688 17.90054688 -18.35453125 17.94953125 -19 18 C-19 17.34 -19 16.68 -19 16 C-19.66 16 -20.32 16 -21 16 C-21.33 16.66 -21.66 17.32 -22 18 C-22 17.34 -22 16.68 -22 16 C-22.99 15.67 -23.98 15.34 -25 15 C-25 13.02 -25 11.04 -25 9 C-24.34 9 -23.68 9 -23 9 C-23 10.32 -23 11.64 -23 13 C-22.34 13 -21.68 13 -21 13 C-21 12.01 -21 11.02 -21 10 C-20.34 9.67 -19.68 9.34 -19 9 C-19.99 8.34 -20.98 7.68 -22 7 C-19.625 6.875 -19.625 6.875 -17 7 C-16.34 7.66 -15.68 8.32 -15 9 C-14.67 7.02 -14.34 5.04 -14 3 C-13.34 3 -12.68 3 -12 3 C-11.7525 4.11375 -11.505 5.2275 -11.25 6.375 C-10.38994661 10.04615198 -10.38994661 10.04615198 -7.875 11.4375 C-7.25625 11.623125 -6.6375 11.80875 -6 12 C-6 11.01 -6 10.02 -6 9 C-6.66 9 -7.32 9 -8 9 C-8.33 6.69 -8.66 4.38 -9 2 C-8.443125 2.165 -7.88625 2.33 -7.3125 2.5 C-4.81308751 3.04041351 -2.54954338 3.07082065 0 3 C0 2.01 0 1.02 0 0 Z " fill="#F2EBE3" transform="translate(102,135)"/>
<path d="M0 0 C2.31 0 4.62 0 7 0 C7 9.24 7 18.48 7 28 C3.37 28 -0.26 28 -4 28 C-4.17566616 23.08134748 -3.91680985 19.07789233 -2.578125 14.296875 C-1.39567135 9.5990186 -0.74930432 4.78279352 0 0 Z " fill="#FEFCF9" transform="translate(111,120)"/>
<path d="M0 0 C1.25425781 0.00902344 2.50851562 0.01804687 3.80078125 0.02734375 C4.75339844 0.03894531 5.70601563 0.05054687 6.6875 0.0625 C6.6875 0.3925 6.6875 0.7225 6.6875 1.0625 C0.2525 1.5575 0.2525 1.5575 -6.3125 2.0625 C-6.6425 11.9625 -6.9725 21.8625 -7.3125 32.0625 C-8.9625 32.0625 -10.6125 32.0625 -12.3125 32.0625 C-13.3125 31.0625 -13.3125 31.0625 -13.42602539 28.65405273 C-13.42078857 27.61192627 -13.41555176 26.5697998 -13.41015625 25.49609375 C-13.40693359 24.37138672 -13.40371094 23.24667969 -13.40039062 22.08789062 C-13.39201172 20.90388672 -13.38363281 19.71988281 -13.375 18.5 C-13.37048828 17.31212891 -13.36597656 16.12425781 -13.36132812 14.90039062 C-13.34949675 11.95437774 -13.33301287 9.00846319 -13.3125 6.0625 C-14.611875 6.206875 -15.91125 6.35125 -17.25 6.5 C-17.98089844 6.58121094 -18.71179688 6.66242188 -19.46484375 6.74609375 C-21.32390229 6.88136614 -21.32390229 6.88136614 -22.3125 8.0625 C-23.83178038 8.13429964 -25.35417482 8.14642007 -26.875 8.125 C-27.70128906 8.11597656 -28.52757812 8.10695313 -29.37890625 8.09765625 C-30.01699219 8.08605469 -30.65507812 8.07445313 -31.3125 8.0625 C-31.3125 9.7125 -31.3125 11.3625 -31.3125 13.0625 C-29.6625 13.0625 -28.0125 13.0625 -26.3125 13.0625 C-26.3125 13.3925 -26.3125 13.7225 -26.3125 14.0625 C-28.6225 14.0625 -30.9325 14.0625 -33.3125 14.0625 C-33.3125 11.7525 -33.3125 9.4425 -33.3125 7.0625 C-30.0125 6.7325 -26.7125 6.4025 -23.3125 6.0625 C-23.3125 4.4125 -23.3125 2.7625 -23.3125 1.0625 C-22.6525 1.0625 -21.9925 1.0625 -21.3125 1.0625 C-21.3125 2.0525 -21.3125 3.0425 -21.3125 4.0625 C-18.6725 4.0625 -16.0325 4.0625 -13.3125 4.0625 C-12.9825 3.0725 -12.6525 2.0825 -12.3125 1.0625 C-8.15623632 0.05323521 -4.26884906 -0.03989579 0 0 Z " fill="#F3DCC9" transform="translate(275.3125,113.9375)"/>
<path d="M0 0 C2.875 -0.1875 2.875 -0.1875 6 0 C8.29755922 3.44633882 8.23643976 4.71068391 8.1953125 8.76171875 C8.18564453 10.43911133 8.18564453 10.43911133 8.17578125 12.15039062 C8.15902344 13.31763672 8.14226562 14.48488281 8.125 15.6875 C8.11597656 16.86634766 8.10695313 18.04519531 8.09765625 19.25976562 C8.07406423 22.17338026 8.0411454 25.08658892 8 28 C5.03 28 2.06 28 -1 28 C-0.95359375 27.16855469 -0.9071875 26.33710938 -0.859375 25.48046875 C-0.82328125 24.39378906 -0.7871875 23.30710938 -0.75 22.1875 C-0.68039062 20.56908203 -0.68039062 20.56908203 -0.609375 18.91796875 C-0.70283547 15.87923182 -0.70283547 15.87923182 -3.015625 14.11328125 C-3.67046875 13.74589844 -4.3253125 13.37851563 -5 13 C-4.1875 11.0625 -4.1875 11.0625 -3 9 C-2.01 8.67 -1.02 8.34 0 8 C0 5.36 0 2.72 0 0 Z " fill="#FEFBF8" transform="translate(289,120)"/>
<path d="M0 0 C9.9 0 19.8 0 30 0 C30 18.48 30 36.96 30 56 C31.98 56 33.96 56 36 56 C34.35 60.29 32.7 64.58 31 69 C29.68 69 28.36 69 27 69 C27.33 56.46 27.66 43.92 28 31 C18.76 31 9.52 31 0 31 C0 30.67 0 30.34 0 30 C9.24 30 18.48 30 28 30 C28 20.43 28 10.86 28 1 C18.76 1 9.52 1 0 1 C0 0.67 0 0.34 0 0 Z " fill="#ECEBE9" transform="translate(180,59)"/>
<path d="M0 0 C4.95 0 9.9 0 15 0 C15.51137226 6.90352555 13.86964374 11.74827614 11 18 C7.75 18.8125 7.75 18.8125 4 19 C0.95301075 16.2105028 0.06396299 14.58142355 -0.390625 10.44921875 C-0.26041667 6.96614583 -0.13020833 3.48307292 0 0 Z " fill="#FEFCF9" transform="translate(91,120)"/>
<path d="M0 0 C1.98 0 3.96 0 6 0 C5.18784945 2.60427612 4.37529393 5.20842468 3.5625 7.8125 C3.33240234 8.55048828 3.10230469 9.28847656 2.86523438 10.04882812 C1.9312816 13.04018411 0.99100896 16.02697312 0 19 C-0.0685495 20.89470816 -0.08480372 22.7916834 -0.0625 24.6875 C-0.05347656 25.68136719 -0.04445312 26.67523438 -0.03515625 27.69921875 C-0.02355469 28.45847656 -0.01195312 29.21773437 0 30 C1.32 30.66 2.64 31.32 4 32 C2.52093108 32.02689216 1.04172517 32.04634621 -0.4375 32.0625 C-1.67306641 32.07990234 -1.67306641 32.07990234 -2.93359375 32.09765625 C-5 32 -5 32 -6 31 C-6.12743425 28.56985841 -6.18521121 26.18069765 -6.1875 23.75 C-6.19974609 23.08097656 -6.21199219 22.41195312 -6.22460938 21.72265625 C-6.23658959 17.65737127 -5.69855631 14.67482334 -4 11 C-3.62406934 9.0075675 -3.28020455 7.0081326 -3 5 C-6.96 5 -10.92 5 -15 5 C-15 4.34 -15 3.68 -15 3 C-10.38 3 -5.76 3 -1 3 C-0.67 2.01 -0.34 1.02 0 0 Z " fill="#F1DFD6" transform="translate(165,115)"/>
<path d="M0 0 C1.98 0 3.96 0 6 0 C5.89365234 1.06927734 5.89365234 1.06927734 5.78515625 2.16015625 C6.05919773 5.78248642 7.3858926 7.46122448 9.4375 10.4375 C13.59918513 17.17506685 14.08074076 23.20274969 14 31 C11.69 31 9.38 31 7 31 C6.99742187 30.11699219 6.99484375 29.23398438 6.9921875 28.32421875 C6.72672823 20.08613262 5.82694507 12.29114614 0 6 C-3.11106176 5.13569376 -3.11106176 5.13569376 -6 5 C-6 7.64 -6 10.28 -6 13 C-6.33 13 -6.66 13 -7 13 C-7.06058594 12.37351562 -7.12117188 11.74703125 -7.18359375 11.1015625 C-7.26738281 10.28429687 -7.35117187 9.46703125 -7.4375 8.625 C-7.51871094 7.81289062 -7.59992188 7.00078125 -7.68359375 6.1640625 C-7.89090114 3.95727195 -7.89090114 3.95727195 -9 2 C-6.36 2.33 -3.72 2.66 -1 3 C-0.67 2.01 -0.34 1.02 0 0 Z " fill="#F2DED1" transform="translate(295,115)"/>
<path d="M0 0 C0 10.23 0 20.46 0 31 C-1.65 31 -3.3 31 -5 31 C-7 29 -7 29 -7.22705078 26.47802734 C-7.21134033 24.92269287 -7.21134033 24.92269287 -7.1953125 23.3359375 C-7.18886719 22.21445313 -7.18242187 21.09296875 -7.17578125 19.9375 C-7.15902344 18.761875 -7.14226562 17.58625 -7.125 16.375 C-7.11597656 15.19164062 -7.10695312 14.00828125 -7.09765625 12.7890625 C-7.07402812 9.85917477 -7.04108514 6.9296866 -7 4 C-9.97 4 -12.94 4 -16 4 C-15.67 3.01 -15.34 2.02 -15 1 C-12.36 1.33 -9.72 1.66 -7 2 C-7 1.34 -7 0.68 -7 0 C-4 -1 -4 -1 0 0 Z " fill="#F2DED4" transform="translate(237,116)"/>
<path d="M0 0 C6.6 0 13.2 0 20 0 C20 3.3 20 6.6 20 10 C13.4 10 6.8 10 0 10 C0 6.7 0 3.4 0 0 Z " fill="#FEFDFC" transform="translate(329,269)"/>
<path d="M0 0 C4.23769831 5.65026441 5.25695598 8.12437684 5.125 15.25 C5.10695313 16.51328125 5.08890625 17.7765625 5.0703125 19.078125 C5.04710937 20.04234375 5.02390625 21.0065625 5 22 C11.435 21.505 11.435 21.505 18 21 C18 21.66 18 22.32 18 23 C21.96 23.33 25.92 23.66 30 24 C30 24.66 30 25.32 30 26 C20.1 26 10.2 26 0 26 C0 17.42 0 8.84 0 0 Z " fill="#EFECE8" transform="translate(297,124)"/>
<path d="M0 0 C1.65 0 3.3 0 5 0 C6.66342837 1.66342837 6.36048097 3.7825709 6.5625 6.0625 C6.64628906 6.98160156 6.73007812 7.90070313 6.81640625 8.84765625 C6.87699219 9.55792969 6.93757813 10.26820313 7 11 C8.65 11.33 10.3 11.66 12 12 C12.33 8.7 12.66 5.4 13 2 C13.33 2 13.66 2 14 2 C14 5.63 14 9.26 14 13 C16.64 13.33 19.28 13.66 22 14 C22 14.66 22 15.32 22 16 C13.09 16 4.18 16 -5 16 C-5.33 15.01 -5.66 14.02 -6 13 C-4.35 12.34 -2.7 11.68 -1 11 C-0.67 7.37 -0.34 3.74 0 0 Z " fill="#ECEBEA" transform="translate(275,134)"/>
<path d="M0 0 C1.65 0 3.3 0 5 0 C5.33 8.91 5.66 17.82 6 27 C13.26 26.67 20.52 26.34 28 26 C28 26.66 28 27.32 28 28 C18.76 28 9.52 28 0 28 C0 18.76 0 9.52 0 0 Z " fill="#FDFBF9" transform="translate(120,120)"/>
<path d="M0 0 C2.475 0.495 2.475 0.495 5 1 C4.65643832 10.80868602 4.65643832 10.80868602 2.3125 15.0625 C-0.34937585 17.2927203 -2.64958539 18.16239635 -6 19 C-6.33 20.65 -6.66 22.3 -7 24 C-7.66 24 -8.32 24 -9 24 C-9.33 24.99 -9.66 25.98 -10 27 C-10.66 27 -11.32 27 -12 27 C-11.67 24.69 -11.34 22.38 -11 20 C-12.98 20.33 -14.96 20.66 -17 21 C-17 23.64 -17 26.28 -17 29 C-19.64 28.67 -22.28 28.34 -25 28 C-25 27.67 -25 27.34 -25 27 C-23.02 27 -21.04 27 -19 27 C-19.26393501 23.56769552 -19.26393501 23.56769552 -20 20 C-20.99 19.34 -21.98 18.68 -23 18 C-22.67 17.34 -22.34 16.68 -22 16 C-21.34 16 -20.68 16 -20 16 C-20 16.66 -20 17.32 -20 18 C-18.53984709 17.71758359 -17.08190207 17.42373386 -15.625 17.125 C-14.40683594 16.88136719 -14.40683594 16.88136719 -13.1640625 16.6328125 C-10.81326077 16.13341068 -10.81326077 16.13341068 -9 14 C-6.5625 13.875 -6.5625 13.875 -4 14 C-3.01 14 -2.02 14 -1 14 C0.97179598 11.04230603 1.36929854 9.83582038 1.75 6.4375 C1.84796875 5.65246094 1.9459375 4.86742187 2.046875 4.05859375 C2.2319392 1.77138813 2.2319392 1.77138813 0 0 Z " fill="#F5A83D" transform="translate(103,135)"/>
<path d="M0 0 C0.20625 0.928125 0.4125 1.85625 0.625 2.8125 C1.7344812 6.15943621 1.7344812 6.15943621 4.625 7.8125 C7.39496721 8.78711809 9.27811191 9.19317751 12.125 9.4375 C16 10 16 10 18.5 11.875 C20 14 20 14 20 17 C21.65 17.66 23.3 18.32 25 19 C25.33 21.64 25.66 24.28 26 27 C26.66 27 27.32 27 28 27 C28 27.99 28 28.98 28 30 C25.625 29.4375 25.625 29.4375 23 28 C21.6875 24.375 21.6875 24.375 21 21 C20.38125 20.95875 19.7625 20.9175 19.125 20.875 C18.42375 20.58625 17.7225 20.2975 17 20 C15.75 16.9375 15.75 16.9375 15 14 C13.783125 14.0825 12.56625 14.165 11.3125 14.25 C7.0181857 14.27280167 5.10925319 13.01780457 2 10 C1.34 9.67 0.68 9.34 0 9 C-2.0095568 6.06295544 -3 4.60777515 -3 1 C-1 0 -1 0 0 0 Z " fill="#F5AD47" transform="translate(68,117)"/>
<path d="M0 0 C6.6 0 13.2 0 20 0 C20 3.3 20 6.6 20 10 C19.34 9.690625 18.68 9.38125 18 9.0625 C14.91634175 7.83447659 14.91634175 7.83447659 11.125 7.625 C6.64819066 7.17391465 3.7516332 5.42292977 0 3 C0 2.01 0 1.02 0 0 Z " fill="#FDF9F4" transform="translate(69,120)"/>
<path d="M0 0 C1.32 0.66 2.64 1.32 4 2 C3.80577824 6.45738946 3.45214661 10.09570678 1.4375 14.125 C-1.35806139 16.27543184 -1.90154807 16.20957306 -5.25 15.8125 C-6.4875 15.544375 -7.725 15.27625 -9 15 C-8.67 13.68 -8.34 12.36 -8 11 C-7.34 11.33 -6.68 11.66 -6 12 C-6 11.01 -6 10.02 -6 9 C-6.66 9 -7.32 9 -8 9 C-8.33 6.69 -8.66 4.38 -9 2 C-8.1646875 2.2475 -8.1646875 2.2475 -7.3125 2.5 C-4.81308751 3.04041351 -2.54954338 3.07082065 0 3 C0 2.01 0 1.02 0 0 Z " fill="#F6BE6E" transform="translate(102,135)"/>
<path d="M0 0 C-0.020625 1.2375 -0.04125 2.475 -0.0625 3.75 C-0.06766681 6.6640825 0.06984442 9.20953327 1 12 C-1.875 12.125 -1.875 12.125 -5 12 C-5.66 11.34 -6.32 10.68 -7 10 C-10.08347826 9.83318891 -10.08347826 9.83318891 -13 10 C-13.3125 7.6875 -13.3125 7.6875 -13 5 C-9.1850533 2.05704112 -4.83922098 0 0 0 Z " fill="#F2E1D1" transform="translate(66,113)"/>
<path d="M0 0 C2.95839355 -0.02689449 5.91654427 -0.04678741 8.875 -0.0625 C9.71675781 -0.07087891 10.55851562 -0.07925781 11.42578125 -0.08789062 C12.23144531 -0.09111328 13.03710938 -0.09433594 13.8671875 -0.09765625 C14.98262939 -0.10551147 14.98262939 -0.10551147 16.12060547 -0.11352539 C18 0 18 0 20 1 C20 1.66 20 2.32 20 3 C14.17347413 6.99533203 7.86167172 6.5104534 1 6 C0 5 0 5 -0.0625 2.4375 C-0.041875 1.633125 -0.02125 0.82875 0 0 Z " fill="#FDFAF7" transform="translate(60,150)"/>
<path d="M0 0 C0 1.98 0 3.96 0 6 C0.99 5.34 1.98 4.68 3 4 C2.78930339 7.68719067 2.06000102 8.93703597 -0.53125 11.65625 C-4.33023563 14.68988675 -7.67954808 14.58845332 -12.375 14.3125 C-13.11105469 14.28994141 -13.84710938 14.26738281 -14.60546875 14.24414062 C-16.40453842 14.18572927 -18.20254753 14.09606337 -20 14 C-20 13.67 -20 13.34 -20 13 C-15.59085217 11.89771304 -11.51617599 11.92345464 -7 12 C-6.67 8.37 -6.34 4.74 -6 1 C-2 0 -2 0 0 0 Z " fill="#F5B661" transform="translate(92,155)"/>
<path d="M0 0 C4.61291833 -0.31451716 6.45116154 0.1380335 10 3 C12.64934822 3.71433121 12.64934822 3.71433121 15 4 C14.25 10.75 14.25 10.75 12 13 C12 12.01 12 11.02 12 10 C11.13375 9.9175 10.2675 9.835 9.375 9.75 C5.41511939 8.87002653 3.07702866 7.63745314 0 5 C-0.375 2.25 -0.375 2.25 0 0 Z " fill="#F1DBD2" transform="translate(34,155)"/>
<path d="M0 0 C0.66 0 1.32 0 2 0 C2 0.66 2 1.32 2 2 C2.66 2 3.32 2 4 2 C4 1.34 4 0.68 4 0 C5.9375 0.375 5.9375 0.375 8 1 C8.33 1.66 8.66 2.32 9 3 C9.33 2.01 9.66 1.02 10 0 C10.66 0 11.32 0 12 0 C11.67 2.97 11.34 5.94 11 9 C9.68 9.33 8.36 9.66 7 10 C7 8.68 7 7.36 7 6 C6.34 6 5.68 6 5 6 C5 7.32 5 8.64 5 10 C4.01 10 3.02 10 2 10 C-0.09350689 6.5980513 -0.17942163 3.94727588 0 0 Z " fill="#F5AA41" transform="translate(209,159)"/>
<path d="M0 0 C3.3 0.33 6.6 0.66 10 1 C10 2.32 10 3.64 10 5 C8.35 5.33 6.7 5.66 5 6 C6.65 6.33 8.3 6.66 10 7 C9.67 7.99 9.34 8.98 9 10 C5.7 10 2.4 10 -1 10 C-0.67 6.7 -0.34 3.4 0 0 Z " fill="#F4D5B3" transform="translate(52,157)"/>
<path d="M0 0 C1.98 0 3.96 0 6 0 C6 3.63 6 7.26 6 11 C8.31 11.33 10.62 11.66 13 12 C13 12.33 13 12.66 13 13 C9.7 13 6.4 13 3 13 C3 12.34 3 11.68 3 11 C2.01 11 1.02 11 0 11 C0 7.37 0 3.74 0 0 Z " fill="#F3DBC9" transform="translate(207,134)"/>
<path d="M0 0 C0.99 0 1.98 0 3 0 C3 8.91 3 17.82 3 27 C2.01 27 1.02 27 0 27 C0 18.09 0 9.18 0 0 Z " fill="#F2F1F0" transform="translate(88,61)"/>
<path d="M0 0 C2.31 0.66 4.62 1.32 7 2 C7.19667385 5.54012923 7.24329772 8.14489381 5 11 C1.875 11.75 1.875 11.75 -1 12 C-1 11.34 -1 10.68 -1 10 C-2.32 10 -3.64 10 -5 10 C-5 9.34 -5 8.68 -5 8 C-3.68 7.67 -2.36 7.34 -1 7 C-2.65 6.67 -4.3 6.34 -6 6 C-3.64046906 3.64046906 -2.22104383 3.50858587 1 3 C0.67 2.01 0.34 1.02 0 0 Z " fill="#FCF2E5" transform="translate(35,141)"/>
<path d="M0 0 C1.65 0 3.3 0 5 0 C7 2 7 2 7.265625 3.875 C7.26046875 4.57625 7.2553125 5.2775 7.25 6 C7.25515625 6.70125 7.2603125 7.4025 7.265625 8.125 C7 10 7 10 5 12 C3.35 12 1.7 12 0 12 C0 8.04 0 4.08 0 0 Z " fill="#F5AF4A" transform="translate(184,158)"/>
<path d="M0 0 C4.455 0.99 4.455 0.99 9 2 C7.02 2.99 7.02 2.99 5 4 C2.75 3.125 2.75 3.125 1 2 C1.99 3.32 2.98 4.64 4 6 C1.69 6.33 -0.62 6.66 -3 7 C-1.68 7.66 -0.36 8.32 1 9 C1 9.33 1 9.66 1 10 C-0.65 10 -2.3 10 -4 10 C-4 10.66 -4 11.32 -4 12 C-2.35 11.67 -0.7 11.34 1 11 C0.67 11.99 0.34 12.98 0 14 C2.97 14.495 2.97 14.495 6 15 C6 15.33 6 15.66 6 16 C-1.21804511 16.36090226 -1.21804511 16.36090226 -4.4375 14.875 C-6.5776943 12.30676684 -6.85941192 10.30381982 -7 7 C-5 5 -5 5 -2.375 4.875 C-1.59125 4.91625 -0.8075 4.9575 0 5 C0 3.35 0 1.7 0 0 Z " fill="#F4B151" transform="translate(34,139)"/>
<path d="M0 0 C1.22265625 2.109375 1.22265625 2.109375 2 4 C0.96875 3.34 -0.0625 2.68 -1.125 2 C-7.15108666 -0.99159818 -13.43669801 -0.8883816 -20 0 C-25.33049398 2.02908039 -29.20395114 5.84807156 -33 10 C-33 7.875 -33 7.875 -32 5 C-23.06430853 -3.9138971 -11.12890215 -5.46682913 0 0 Z " fill="#F6BE6D" transform="translate(83,136)"/>
<path d="M0 0 C1.65 0 3.3 0 5 0 C6.73956658 1.73956658 6.37190386 4.1936622 6.5625 6.5625 C6.64628906 7.57441406 6.73007812 8.58632812 6.81640625 9.62890625 C6.87699219 10.41136719 6.93757813 11.19382813 7 12 C4.69 11.67 2.38 11.34 0 11 C0 7.37 0 3.74 0 0 Z " fill="#F2D9C8" transform="translate(275,134)"/>
<path d="M0 0 C-1.65 4.29 -3.3 8.58 -5 13 C-6.32 13 -7.64 13 -9 13 C-9 9.37 -9 5.74 -9 2 C-5 0 -5 0 0 0 Z " fill="#F2D5BC" transform="translate(216,115)"/>
<path d="M0 0 C0 0.66 0 1.32 0 2 C-0.99 2 -1.98 2 -3 2 C-3 3.32 -3 4.64 -3 6 C-1.68 6.33 -0.36 6.66 1 7 C-4.51648654 10.62926746 -8.78630501 10.01924246 -15 9 C-15 8.34 -15 7.68 -15 7 C-14.01 7 -13.02 7 -12 7 C-12 6.01 -12 5.02 -12 4 C-12.99 4 -13.98 4 -15 4 C-15 3.34 -15 2.68 -15 2 C-13.35 1.67 -11.7 1.34 -10 1 C-10.33 2.65 -10.66 4.3 -11 6 C-9.02 6 -7.04 6 -5 6 C-5 4.35 -5 2.7 -5 1 C-2 0 -2 0 0 0 Z " fill="#F5C37C" transform="translate(75,140)"/>
<path d="M0 0 C1.32 0 2.64 0 4 0 C4.08142927 1.7492214 4.13938541 3.49954542 4.1875 5.25 C4.22230469 6.22453125 4.25710937 7.1990625 4.29296875 8.203125 C3.96075202 11.37468742 3.11327721 12.67040307 1 15 C-0.32 14.67 -1.64 14.34 -3 14 C-2.09276387 9.31261335 -1.0452733 4.65806256 0 0 Z " fill="#F9D198" transform="translate(106,121)"/>
<path d="M0 0 C2 2 2 2 2.375 4.375 C1.87350236 7.88548345 0.79712922 8.86534875 -2 11 C-5.25 12.25 -5.25 12.25 -8 13 C-7.63033201 11.20275237 -7.2282752 9.41214422 -6.8125 7.625 C-6.59207031 6.62726563 -6.37164062 5.62953125 -6.14453125 4.6015625 C-5 2 -5 2 -2.38671875 0.6484375 C-1.59910156 0.43445313 -0.81148438 0.22046875 0 0 Z " fill="#F1DCD2" transform="translate(101,152)"/>
<path d="M0 0 C2.5 0.125 2.5 0.125 3.5 1.125 C3.6328125 2.9375 3.6328125 2.9375 3.625 5.125 C3.62757813 5.846875 3.63015625 6.56875 3.6328125 7.3125 C3.5 9.125 3.5 9.125 2.5 10.125 C0 10.25 0 10.25 -2.5 10.125 C-3.5 9.125 -3.5 9.125 -3.6328125 7.3125 C-3.63023437 6.590625 -3.62765625 5.86875 -3.625 5.125 C-3.62757813 4.403125 -3.63015625 3.68125 -3.6328125 2.9375 C-3.42186711 0.05871588 -2.89175802 0.1445879 0 0 Z " fill="#F7C071" transform="translate(292.5,158.875)"/>
<path d="M0 0 C0.33 0 0.66 0 1 0 C1 1.65 1 3.3 1 5 C-8.24 5 -17.48 5 -27 5 C-27 4.34 -27 3.68 -27 3 C-18.09 2.67 -9.18 2.34 0 2 C0 1.34 0 0.68 0 0 Z " fill="#EEEDEC" transform="translate(207,145)"/>
<path d="M0 0 C0 2.31 0 4.62 0 7 C-3.3 7 -6.6 7 -10 7 C-10 5.35 -10 3.7 -10 2 C-6.5980513 -0.09350689 -3.94727588 -0.17942163 0 0 Z " fill="#FDF0DF" transform="translate(84,155)"/>
<path d="M0 0 C1.98 0 3.96 0 6 0 C6.19412181 1.47831221 6.38012131 2.95769316 6.5625 4.4375 C6.66691406 5.26121094 6.77132812 6.08492187 6.87890625 6.93359375 C6.91886719 7.61550781 6.95882812 8.29742187 7 9 C6 10 6 10 2.9375 10.0625 C1.968125 10.041875 0.99875 10.02125 0 10 C0 6.7 0 3.4 0 0 Z " fill="#F5AC45" transform="translate(129,159)"/>
<path d="M0 0 C1.28300777 2.56601555 0.85098078 3.66479324 0.25 6.4375 C0.09015625 7.21996094 -0.0696875 8.00242188 -0.234375 8.80859375 C-1.07980402 11.22841864 -2.07079699 12.35169743 -4 14 C-4.99 13.67 -5.98 13.34 -7 13 C-6.67 12.34 -6.34 11.68 -6 11 C-6.66 10.67 -7.32 10.34 -8 10 C-7.67 8.02 -7.34 6.04 -7 4 C-5.35 4 -3.7 4 -2 4 C-2 3.01 -2 2.02 -2 1 C-1.34 0.67 -0.68 0.34 0 0 Z " fill="#FAEAD5" transform="translate(105,137)"/>
<path d="M0 0 C1.66611905 -0.042721 3.33382885 -0.04063832 5 0 C6 1 6 1 6.25 4.375 C6 8 6 8 4.5 9.9375 C4.005 10.288125 3.51 10.63875 3 11 C3 10.34 3 9.68 3 9 C2.34 9 1.68 9 1 9 C0.67 9.66 0.34 10.32 0 11 C0 10.34 0 9.68 0 9 C-0.99 8.67 -1.98 8.34 -3 8 C-3 6.02 -3 4.04 -3 2 C-2.34 2 -1.68 2 -1 2 C-1 3.32 -1 4.64 -1 6 C-0.34 6 0.32 6 1 6 C1 5.01 1 4.02 1 3 C1.66 2.67 2.32 2.34 3 2 C2.01 1.34 1.02 0.68 0 0 Z " fill="#F2DBC7" transform="translate(80,142)"/>
<path d="M0 0 C2.0625 0.4375 2.0625 0.4375 4 1 C3.01 1.495 3.01 1.495 2 2 C0.94647157 4.30965848 -0.05719096 6.6429774 -1 9 C-3.31 9 -5.62 9 -8 9 C-8 7.35 -8 5.7 -8 4 C-6.865625 3.525625 -5.73125 3.05125 -4.5625 2.5625 C-1.24259834 1.36377917 -1.24259834 1.36377917 0 0 Z " fill="#F8E9D8" transform="translate(52,147)"/>
<path d="M0 0 C-1.65 3.63 -3.3 7.26 -5 11 C-5.99 10.67 -6.98 10.34 -8 10 C-9.6875 6.4375 -9.6875 6.4375 -11 3 C-6.75755532 0.00533317 -5.65814459 0 0 0 Z " fill="#F2DDD1" transform="translate(318,115)"/>
<path d="M0 0 C0 3.63 0 7.26 0 11 C-0.66 11 -1.32 11 -2 11 C-2 9.68 -2 8.36 -2 7 C-2.99 7 -3.98 7 -5 7 C-5 8.32 -5 9.64 -5 11 C-5.66 11 -6.32 11 -7 11 C-7 7.7 -7 4.4 -7 1 C-3 0 -3 0 0 0 Z " fill="#F6B75D" transform="translate(258,158)"/>
<path d="M0 0 C0.66 0 1.32 0 2 0 C2.18451025 18.82004556 2.18451025 18.82004556 1 28 C0.67 28 0.34 28 0 28 C0 25.03 0 22.06 0 19 C-0.66 18.67 -1.32 18.34 -2 18 C-2 15.03 -2 12.06 -2 9 C-1.34 9 -0.68 9 0 9 C0 6.03 0 3.06 0 0 Z " fill="#F1EAE2" transform="translate(297,150)"/>
<path d="M0 0 C1.98 0 3.96 0 6 0 C6.0825 0.94875 6.165 1.8975 6.25 2.875 C6.65074923 6.10461791 6.65074923 6.10461791 9.0625 7.375 C9.701875 7.58125 10.34125 7.7875 11 8 C9.35 8 7.7 8 6 8 C6 8.99 6 9.98 6 11 C5.34 11 4.68 11 4 11 C4 10.01 4 9.02 4 8 C3.01 8 2.02 8 1 8 C-0.35439668 5.29120665 -0.06501451 2.99066732 0 0 Z " fill="#F1DED1" transform="translate(174,139)"/>
<path d="M0 0 C2.875 -0.125 2.875 -0.125 6 0 C6.66 0.66 7.32 1.32 8 2 C7.44444444 6.55555556 7.44444444 6.55555556 6 8 C4.00041636 8.04080783 1.99954746 8.04254356 0 8 C0 5.36 0 2.72 0 0 Z " fill="#F3D6BB" transform="translate(274,120)"/>
<path d="M0 0 C1.65 0.33 3.3 0.66 5 1 C5.33 3.97 5.66 6.94 6 10 C5.34 10 4.68 10 4 10 C4 9.34 4 8.68 4 8 C3.01 8 2.02 8 1 8 C1 8.66 1 9.32 1 10 C0.34 10 -0.32 10 -1 10 C-1.125 2.25 -1.125 2.25 0 0 Z " fill="#F6B356" transform="translate(144,159)"/>
<path d="M0 0 C3 3 3 3 3.29296875 6.35546875 C3.25816406 7.62003906 3.22335937 8.88460937 3.1875 10.1875 C3.16042969 11.45980469 3.13335937 12.73210937 3.10546875 14.04296875 C3.07066406 15.01878906 3.03585937 15.99460938 3 17 C3.66 17 4.32 17 5 17 C5 17.66 5 18.32 5 19 C3.35 19 1.7 19 0 19 C0 12.73 0 6.46 0 0 Z " fill="#FCFAF9" transform="translate(299,129)"/>
<path d="M0 0 C1 1 1 1 1.09765625 3.28515625 C1.08605469 4.20167969 1.07445313 5.11820312 1.0625 6.0625 C1.05347656 6.98160156 1.04445313 7.90070313 1.03515625 8.84765625 C1.02355469 9.55792969 1.01195313 10.26820312 1 11 C-1.60774762 7.79678245 -2.34789916 6.1747899 -2 2 C-3.29217171 2.47780303 -4.58372046 2.95729106 -5.875 3.4375 C-6.95394531 3.83775391 -6.95394531 3.83775391 -8.0546875 4.24609375 C-10.03648845 4.97916854 -10.03648845 4.97916854 -12 6 C-12.66 5.34 -13.32 4.68 -14 4 C-9.91508819 -0.72989788 -5.97035487 -1.49258872 0 0 Z " fill="#F6B861" transform="translate(68,111)"/>
<path d="M0 0 C0.66 0 1.32 0 2 0 C2 3.96 2 7.92 2 12 C1.01 11.67 0.02 11.34 -1 11 C-1 9.68 -1 8.36 -1 7 C-1.66 7 -2.32 7 -3 7 C-3 8.32 -3 9.64 -3 11 C-3.66 11 -4.32 11 -5 11 C-5 7.7 -5 4.4 -5 1 C-4.34 1 -3.68 1 -3 1 C-3 1.99 -3 2.98 -3 4 C-2.34 4 -1.68 4 -1 4 C-0.67 2.68 -0.34 1.36 0 0 Z " fill="#F6B150" transform="translate(162,158)"/>
<path d="M0 0 C0.66 0 1.32 0 2 0 C2.50559908 1.43554025 3.0042749 2.8735202 3.5 4.3125 C3.7784375 5.11300781 4.056875 5.91351563 4.34375 6.73828125 C5 9 5 9 5 12 C2.69 12 0.38 12 -2 12 C-1.44687265 7.97007218 -0.8441938 3.97977076 0 0 Z " fill="#F2D2B4" transform="translate(174,121)"/>
<path d="M0 0 C3.96 0 7.92 0 12 0 C12 2.97 12 5.94 12 9 C13.32 9.66 14.64 10.32 16 11 C14.02 11 12.04 11 10 11 C10 8.36 10 5.72 10 3 C7.36 3 4.72 3 2 3 C2 2.34 2 1.68 2 1 C1.34 0.67 0.68 0.34 0 0 Z " fill="#F4AB45" transform="translate(61,157)"/>
<path d="M0 0 C1.98 0 3.96 0 6 0 C5.67 1.98 5.34 3.96 5 6 C4.34 6 3.68 6 3 6 C3 6.66 3 7.32 3 8 C3.99 8 4.98 8 6 8 C6 8.99 6 9.98 6 11 C4.02 11 2.04 11 0 11 C0 7.37 0 3.74 0 0 Z " fill="#F6B558" transform="translate(171,159)"/>
<path d="M0 0 C1.2065625 0.0309375 1.2065625 0.0309375 2.4375 0.0625 C2.4375 1.0525 2.4375 2.0425 2.4375 3.0625 C1.4475 3.0625 0.4575 3.0625 -0.5625 3.0625 C-0.5625 3.7225 -0.5625 4.3825 -0.5625 5.0625 C0.0975 5.3925 0.7575 5.7225 1.4375 6.0625 C0.7775 6.0625 0.1175 6.0625 -0.5625 6.0625 C-0.5625 7.0525 -0.5625 8.0425 -0.5625 9.0625 C0.4275 9.0625 1.4175 9.0625 2.4375 9.0625 C2.4375 10.0525 2.4375 11.0425 2.4375 12.0625 C0.77138095 12.105221 -0.89632885 12.10313832 -2.5625 12.0625 C-3.5625 11.0625 -3.5625 11.0625 -3.6953125 8.8125 C-3.69273437 7.905 -3.69015625 6.9975 -3.6875 6.0625 C-3.69007813 5.155 -3.69265625 4.2475 -3.6953125 3.3125 C-3.50465529 0.08254264 -3.25740423 0.07944888 0 0 Z " fill="#F6B14F" transform="translate(319.5625,157.9375)"/>
<path d="M0 0 C1.65 0.33 3.3 0.66 5 1 C4.65734896 10.78268711 4.65734896 10.78268711 2.3125 15.125 C-0.47010586 17.38116692 -2.46326322 17.75885886 -6 18 C-5.505 16.515 -5.505 16.515 -5 15 C-3.66923011 14.65657551 -2.33568021 14.32380126 -1 14 C0.97179598 11.04230603 1.36929854 9.83582038 1.75 6.4375 C1.84796875 5.65246094 1.9459375 4.86742187 2.046875 4.05859375 C2.2319392 1.77138813 2.2319392 1.77138813 0 0 Z " fill="#F5B152" transform="translate(103,135)"/>
<path d="M0 0 C2.375 -0.125 2.375 -0.125 5 0 C5.66 0.66 6.32 1.32 7 2 C6.44444444 6.55555556 6.44444444 6.55555556 5 8 C3.33382885 8.04063832 1.66611905 8.042721 0 8 C0 5.36 0 2.72 0 0 Z " fill="#F2DBCD" transform="translate(138,133)"/>
<path d="M0 0 C1.98 0 3.96 0 6 0 C6 2.64 6 5.28 6 8 C4.02 8 2.04 8 0 8 C0 5.36 0 2.72 0 0 Z " fill="#F1DBD2" transform="translate(65,160)"/>
<path d="M0 0 C1.65 0 3.3 0 5 0 C4.01 0.66 3.02 1.32 2 2 C1.73272986 4.48340903 1.65133666 6.71472068 1.70703125 9.1953125 C1.71127609 9.90275604 1.71552094 10.61019958 1.71989441 11.33908081 C1.73670453 13.60143905 1.77435872 15.86291048 1.8125 18.125 C1.82754393 19.65753923 1.84123284 21.1900924 1.85351562 22.72265625 C1.88661538 26.48211318 1.93841175 30.24090618 2 34 C1.01 34 0.02 34 -1 34 C-1.02468857 29.4793335 -1.04285449 24.9587061 -1.05493164 20.43798828 C-1.05996552 18.89956987 -1.06679308 17.36115625 -1.07543945 15.82275391 C-1.08754639 13.61359474 -1.09323769 11.40449874 -1.09765625 9.1953125 C-1.10281754 8.50567413 -1.10797882 7.81603577 -1.11329651 7.10549927 C-1.11387171 2.22774341 -1.11387171 2.22774341 0 0 Z " fill="#EAE5DF" transform="translate(268,146)"/>
<path d="M0 0 C0.99 0.33 1.98 0.66 3 1 C2.01 1.495 2.01 1.495 1 2 C1.28109113 3.64767247 1.57518526 5.29313145 1.875 6.9375 C2.03742188 7.85402344 2.19984375 8.77054688 2.3671875 9.71484375 C2.57601562 10.46894531 2.78484375 11.22304687 3 12 C3.66 12.33 4.32 12.66 5 13 C4.01 13 3.02 13 2 13 C2 16.3 2 19.6 2 23 C1.34 23 0.68 23 0 23 C0 15.41 0 7.82 0 0 Z " fill="#EDE3D6" transform="translate(208,157)"/>
<path d="M0 0 C0.99 0 1.98 0 3 0 C2.67 8.58 2.34 17.16 2 26 C6.29 26 10.58 26 15 26 C15 26.33 15 26.66 15 27 C10.05 27 5.1 27 0 27 C0 18.09 0 9.18 0 0 Z " fill="#EEE5D8" transform="translate(237,88)"/>
<path d="M0 0 C2.31 0 4.62 0 7 0 C7 0.99 7 1.98 7 3 C6.34 3 5.68 3 5 3 C5 5.64 5 8.28 5 11 C4.01 11 3.02 11 2 11 C2 8.36 2 5.72 2 3 C1.34 3 0.68 3 0 3 C0 2.01 0 1.02 0 0 Z " fill="#F5B864" transform="translate(237,158)"/>
<path d="M0 0 C0.33 0 0.66 0 1 0 C1.02687279 1.81242052 1.04633715 3.62495233 1.0625 5.4375 C1.07410156 6.44683594 1.08570313 7.45617187 1.09765625 8.49609375 C1 11 1 11 0 12 C-1.41570123 12.08651611 -2.835595 12.10704904 -4.25390625 12.09765625 C-5.10791016 12.09443359 -5.96191406 12.09121094 -6.84179688 12.08789062 C-7.73962891 12.07951172 -8.63746094 12.07113281 -9.5625 12.0625 C-10.46419922 12.05798828 -11.36589844 12.05347656 -12.29492188 12.04882812 C-14.53001314 12.03700225 -16.76497437 12.0205222 -19 12 C-12.50713086 8.68695028 -8.20967589 9.14622259 -1 10 C-0.67 6.7 -0.34 3.4 0 0 Z " fill="#FBF3E8" transform="translate(288,136)"/>
<path d="M0 0 C1.20217503 2.40435006 1.03897118 3.68381369 0.87890625 6.3515625 C0.83056641 7.20234375 0.78222656 8.053125 0.73242188 8.9296875 C0.64831055 10.26386719 0.64831055 10.26386719 0.5625 11.625 C0.51029297 12.5221875 0.45808594 13.419375 0.40429688 14.34375 C0.2744565 16.56284012 0.13948661 18.78149871 0 21 C-0.66 20.01 -1.32 19.02 -2 18 C-2.99 17.34 -3.98 16.68 -5 16 C-4.01 16 -3.02 16 -2 16 C-2.10699219 15.09636719 -2.21398437 14.19273437 -2.32421875 13.26171875 C-2.44410156 12.08222656 -2.56398437 10.90273437 -2.6875 9.6875 C-2.81511719 8.51574219 -2.94273437 7.34398437 -3.07421875 6.13671875 C-3 3 -3 3 -1.51953125 1.08203125 C-1.01808594 0.72496094 -0.51664063 0.36789063 0 0 Z " fill="#EDE3D6" transform="translate(150,142)"/>
<path d="M0 0 C0.04241723 2.33294775 0.04092937 4.66702567 0 7 C-1 8 -1 8 -4.5625 8.0625 C-5.696875 8.041875 -6.83125 8.02125 -8 8 C-6.48291727 4.46014029 -4.24676932 0 0 0 Z " fill="#FDF9F4" transform="translate(59,138)"/>
<path d="M0 0 C0.66 0 1.32 0 2 0 C2.66 1.32 3.32 2.64 4 4 C4.33 2.68 4.66 1.36 5 0 C5.66 0 6.32 0 7 0 C6.34 3.3 5.68 6.6 5 10 C4.01 10 3.02 10 2 10 C0.68373308 6.38026598 0 3.90432869 0 0 Z " fill="#F6B04D" transform="translate(303,159)"/>
<path d="M0 0 C1.32 0 2.64 0 4 0 C4 0.66 4 1.32 4 2 C3.01 2 2.02 2 1 2 C1 3.65 1 5.3 1 7 C2.98 7 4.96 7 7 7 C7 7.66 7 8.32 7 9 C3.625 9.125 3.625 9.125 0 9 C-2 7 -2 7 -2.25 4.5 C-2 2 -2 2 0 0 Z " fill="#F5AF4B" transform="translate(52,116)"/>
<path d="M0 0 C0.66 0.66 1.32 1.32 2 2 C3.98821313 2.39764263 5.98944339 2.73775349 8 3 C8.33 2.34 8.66 1.68 9 1 C9 1.99 9 2.98 9 4 C6.625 5.0625 6.625 5.0625 4 6 C3.34 5.67 2.68 5.34 2 5 C2 5.66 2 6.32 2 7 C-0.31 7 -2.62 7 -5 7 C-5 6.67 -5 6.34 -5 6 C-3.35 6 -1.7 6 0 6 C0 5.34 0 4.68 0 4 C-1.98 4 -3.96 4 -6 4 C-6 3.67 -6 3.34 -6 3 C-4.02 3 -2.04 3 0 3 C0 2.01 0 1.02 0 0 Z " fill="#F6BB69" transform="translate(59,122)"/>
<path d="M0 0 C0 0.99 0 1.98 0 3 C-3.3 3 -6.6 3 -10 3 C-10.33 2.01 -10.66 1.02 -11 0 C-7.18243176 -1.37432457 -3.92744671 -0.67975039 0 0 Z " fill="#F2D1B1" transform="translate(85,164)"/>
<path d="M0 0 C1.66611905 -0.042721 3.33382885 -0.04063832 5 0 C6 1 6 1 6.0625 3.5625 C6.041875 4.366875 6.02125 5.17125 6 6 C4.02 6 2.04 6 0 6 C0 4.02 0 2.04 0 0 Z " fill="#F2DACB" transform="translate(138,121)"/>
<path d="M0 0 C0.66 0 1.32 0 2 0 C2 2.64 2 5.28 2 8 C3.32 8 4.64 8 6 8 C6 8.99 6 9.98 6 11 C4.02 11 2.04 11 0 11 C0 7.37 0 3.74 0 0 Z " fill="#F7B85F" transform="translate(277,159)"/>
<path d="M0 0 C0.33 0 0.66 0 1 0 C1.3125 2.3125 1.3125 2.3125 1 5 C0.195625 5.474375 -0.60875 5.94875 -1.4375 6.4375 C-4.34452754 7.80069894 -4.34452754 7.80069894 -4.8125 11.1875 C-4.9053125 12.5796875 -4.9053125 12.5796875 -5 14 C-7.1385485 11.8614515 -7.42655063 10.86724686 -8 8 C-7.34 8 -6.68 8 -6 8 C-5.67 6.68 -5.34 5.36 -5 4 C-3.35 3.67 -1.7 3.34 0 3 C0 2.01 0 1.02 0 0 Z " fill="#F5A636" transform="translate(49,134)"/>
<path d="M0 0 C2.64 0.66 5.28 1.32 8 2 C8 2.33 8 2.66 8 3 C6.35 3 4.7 3 3 3 C3.33 4.98 3.66 6.96 4 9 C2.35 8.67 0.7 8.34 -1 8 C-0.67 5.36 -0.34 2.72 0 0 Z " fill="#EFDAC2" transform="translate(57,147)"/>
<path d="M0 0 C2.97 0.33 5.94 0.66 9 1 C9 1.99 9 2.98 9 4 C6.36 4 3.72 4 1 4 C0.67 2.68 0.34 1.36 0 0 Z " fill="#F9F1E5" transform="translate(52,157)"/>
<path d="M0 0 C-0.33 1.32 -0.66 2.64 -1 4 C-2.98 4.33 -4.96 4.66 -7 5 C-7 4.34 -7 3.68 -7 3 C-8.32 3 -9.64 3 -11 3 C-11 2.34 -11 1.68 -11 1 C-7.26562152 0.12132271 -3.83225427 -0.08912219 0 0 Z " fill="#F3E4D0" transform="translate(41,148)"/>
<path d="M0 0 C-0.55728913 3.34373475 -1.35173889 6.03312999 -3 9 C-3.66 9 -4.32 9 -5 9 C-5 6.36 -5 3.72 -5 1 C-2 0 -2 0 0 0 Z " fill="#F0D6C5" transform="translate(92,155)"/>
<path d="M0 0 C1.65 0 3.3 0 5 0 C6.53445094 3.06890187 5.54984289 5.70094266 5 9 C4.01 9 3.02 9 2 9 C2.04125 7.88625 2.0825 6.7725 2.125 5.625 C2.41121859 1.95633975 2.41121859 1.95633975 0 0 Z " fill="#F9D5A1" transform="translate(184,158)"/>
<path d="M0 0 C1.0625 1.8125 1.0625 1.8125 2 4 C1.67 4.99 1.34 5.98 1 7 C1.99 7 2.98 7 4 7 C4 7.99 4 8.98 4 10 C4.66 10.33 5.32 10.66 6 11 C3.69 11 1.38 11 -1 11 C-1 7.25838897 -0.48661829 3.71046443 0 0 Z " fill="#F4E9DA" transform="translate(59,137)"/>
<path d="M0 0 C0.66 0 1.32 0 2 0 C2.33 2.64 2.66 5.28 3 8 C3.66 8 4.32 8 5 8 C5 8.99 5 9.98 5 11 C2.525 10.01 2.525 10.01 0 9 C0 6.03 0 3.06 0 0 Z " fill="#F5A637" transform="translate(91,136)"/>
<path d="M0 0 C1.2065625 0.0309375 1.2065625 0.0309375 2.4375 0.0625 C2.4375 1.0525 2.4375 2.0425 2.4375 3.0625 C1.1175 2.7325 -0.2025 2.4025 -1.5625 2.0625 C-1.5625 4.3725 -1.5625 6.6825 -1.5625 9.0625 C-2.2225 9.0625 -2.8825 9.0625 -3.5625 9.0625 C-3.66015625 2.91015625 -3.66015625 2.91015625 -3.5625 1.0625 C-2.5625 0.0625 -2.5625 0.0625 0 0 Z " fill="#F6AE48" transform="translate(292.5625,158.9375)"/>
<path d="M0 0 C0.33 0 0.66 0 1 0 C1.2165625 1.423125 1.2165625 1.423125 1.4375 2.875 C1.82935399 5.8934494 1.82935399 5.8934494 3 8 C3.99 8 4.98 8 6 8 C6 8.99 6 9.98 6 11 C4.33388095 11.042721 2.66617115 11.04063832 1 11 C0 10 0 10 -0.09765625 7.71484375 C-0.08605469 6.79832031 -0.07445312 5.88179687 -0.0625 4.9375 C-0.05347656 4.01839844 -0.04445313 3.09929687 -0.03515625 2.15234375 C-0.02355469 1.44207031 -0.01195312 0.73179687 0 0 Z " fill="#F7C172" transform="translate(316,159)"/>
<path d="M0 0 C0.33 0.99 0.66 1.98 1 3 C3.00016466 4.20882096 3.00016466 4.20882096 5 5 C5 7.31 5 9.62 5 12 C3 9 3 9 2 7 C-0.02463255 6.34786708 -0.02463255 6.34786708 -2 6 C-1.67 4.68 -1.34 3.36 -1 2 C-1 2.99 -1 3.98 -1 5 C-0.67 3.35 -0.34 1.7 0 0 Z " fill="#F5B65D" transform="translate(87,131)"/>
<path d="M0 0 C2.475 0.495 2.475 0.495 5 1 C5.33 2.32 5.66 3.64 6 5 C4.02 5 2.04 5 0 5 C0 3.35 0 1.7 0 0 Z " fill="#FDF4E8" transform="translate(61,120)"/>
<path d="M0 0 C0.66 0.66 1.32 1.32 2 2 C1.9765625 4.6015625 1.9765625 4.6015625 1.625 7.625 C1.51414063 8.62789062 1.40328125 9.63078125 1.2890625 10.6640625 C1.19367188 11.43492187 1.09828125 12.20578125 1 13 C0.01 13 -0.98 13 -2 13 C-2 12.01 -2 11.02 -2 10 C-1.34 10 -0.68 10 0 10 C0 6.7 0 3.4 0 0 Z " fill="#F2C483" transform="translate(149,118)"/>
<path d="M0 0 C-0.33 0.66 -0.66 1.32 -1 2 C1.97 2.495 1.97 2.495 5 3 C5 3.33 5 3.66 5 4 C3.741875 4.04125 2.48375 4.0825 1.1875 4.125 C0.47980469 4.14820313 -0.22789063 4.17140625 -0.95703125 4.1953125 C-3 4 -3 4 -6 2 C-6 1.34 -6 0.68 -6 0 C-3 -1 -3 -1 0 0 Z " fill="#F5BB6A" transform="translate(35,151)"/>
<path d="M0 0 C1.32 0 2.64 0 4 0 C3.67 1.65 3.34 3.3 3 5 C1.68 5 0.36 5 -1 5 C-0.67 3.35 -0.34 1.7 0 0 Z " fill="#FEFCF9" transform="translate(45,150)"/>
<path d="M0 0 C2.31 0.66 4.62 1.32 7 2 C7 3.65 7 5.3 7 7 C6.67 6.34 6.34 5.68 6 5 C5.360625 4.87625 4.72125 4.7525 4.0625 4.625 C2 4 2 4 0.75 1.9375 C0.5025 1.298125 0.255 0.65875 0 0 Z " fill="#FCE6C9" transform="translate(35,141)"/>
<path d="M0 0 C0.66 0 1.32 0 2 0 C1.67 2.97 1.34 5.94 1 9 C0.67 8.01 0.34 7.02 0 6 C-0.99 5.67 -1.98 5.34 -3 5 C-2.67 3.68 -2.34 2.36 -2 1 C-1.67 1.66 -1.34 2.32 -1 3 C-0.67 2.01 -0.34 1.02 0 0 Z " fill="#F7BC69" transform="translate(219,159)"/>
<path d="M0 0 C0 1.65 0 3.3 0 5 C-1.65 4.67 -3.3 4.34 -5 4 C-5 3.01 -5 2.02 -5 1 C-3 0 -3 0 0 0 Z " fill="#FDF8F2" transform="translate(66,113)"/>
<path d="M0 0 C0.66 0 1.32 0 2 0 C2 0.66 2 1.32 2 2 C2.66 2 3.32 2 4 2 C4.33 1.34 4.66 0.68 5 0 C4.67 1.98 4.34 3.96 4 6 C2.66666667 6 1.33333333 6 0 6 C0 4.02 0 2.04 0 0 Z " fill="#F6C47D" transform="translate(209,159)"/>
<path d="M0 0 C0.66 0 1.32 0 2 0 C1.67 1.65 1.34 3.3 1 5 C-1.92879371 4.37240135 -4.36095629 3.41377341 -7 2 C-4.69 2 -2.38 2 0 2 C0 1.34 0 0.68 0 0 Z " fill="#F4AB44" transform="translate(61,127)"/>
<path d="M0 0 C1.32 0 2.64 0 4 0 C4 2.64 4 5.28 4 8 C3.67 7.34 3.34 6.68 3 6 C2.01 6 1.02 6 0 6 C0 5.34 0 4.68 0 4 C0.66 4 1.32 4 2 4 C2 3.01 2 2.02 2 1 C1.34 0.67 0.68 0.34 0 0 Z " fill="#FDF6EC" transform="translate(174,161)"/>
<path d="M0 0 C-0.33 0.66 -0.66 1.32 -1 2 C-1.66 2 -2.32 2 -3 2 C-3 4.31 -3 6.62 -3 9 C-3.33 9 -3.66 9 -4 9 C-4 6.69 -4 4.38 -4 2 C-5.32 1.67 -6.64 1.34 -8 1 C-3.375 -1.125 -3.375 -1.125 0 0 Z " fill="#F6B151" transform="translate(55,155)"/>
<path d="M0 0 C0.99 0.33 1.98 0.66 3 1 C3 2.98 3 4.96 3 7 C2.01 7 1.02 7 0 7 C0 4.69 0 2.38 0 0 Z " fill="#F8CA89" transform="translate(131,160)"/>
<path d="M0 0 C0.33 0.99 0.66 1.98 1 3 C-2.50776784 4.60355101 -5.14354879 5.22036864 -9 5 C-7.68 4.67 -6.36 4.34 -5 4 C-5 3.34 -5 2.68 -5 2 C-3.35 1.34 -1.7 0.68 0 0 Z " fill="#F5A22E" transform="translate(91,163)"/>
<path d="M0 0 C0.33 0 0.66 0 1 0 C1.19294408 4.82360189 0.75747614 8.49646738 -1 13 C-1.33 13 -1.66 13 -2 13 C-2.625 9.625 -2.625 9.625 -3 6 C-2.34 5.34 -1.68 4.68 -1 4 C-0.3574765 1.93125966 -0.3574765 1.93125966 0 0 Z " fill="#F5B559" transform="translate(44,142)"/>
<path d="M0 0 C2.875 -0.125 2.875 -0.125 6 0 C6.66 0.66 7.32 1.32 8 2 C7.67 2.99 7.34 3.98 7 5 C7 4.34 7 3.68 7 3 C5.35 3.33 3.7 3.66 2 4 C2.66 3.67 3.32 3.34 4 3 C4 2.34 4 1.68 4 1 C2.68 0.67 1.36 0.34 0 0 Z " fill="#F4B866" transform="translate(85,152)"/>
<path d="M0 0 C0.66 0 1.32 0 2 0 C2.66 2.97 3.32 5.94 4 9 C3.67 8.34 3.34 7.68 3 7 C2.01 6.67 1.02 6.34 0 6 C0 4.02 0 2.04 0 0 Z " fill="#F7DDB7" transform="translate(77,144)"/>
<path d="M0 0 C2.64 0.66 5.28 1.32 8 2 C5.36095629 3.41377341 2.92879371 4.37240135 0 5 C0 3.35 0 1.7 0 0 Z " fill="#F6EDE0" transform="translate(58,131)"/>
<path d="M0 0 C0.66 2.64 1.32 5.28 2 8 C1.34 8 0.68 8 0 8 C-2.29648649 5.4385343 -3 4.52032428 -3 1 C-1 0 -1 0 0 0 Z " fill="#F4AA41" transform="translate(68,117)"/>
<path d="M0 0 C0.66 0.66 1.32 1.32 2 2 C0.35 3.98 -1.3 5.96 -3 8 C-3.75 6.25 -3.75 6.25 -4 4 C-2.0625 1.75 -2.0625 1.75 0 0 Z " fill="#FAD5A2" transform="translate(54,138)"/>
<path d="M0 0 C0.66 0 1.32 0 2 0 C2 3.3 2 6.6 2 10 C0.030916 6.06183201 0 4.24768147 0 0 Z " fill="#FEFBF8" transform="translate(86,138)"/>
<path d="M0 0 C2.97 0 5.94 0 9 0 C8.01 0.33 7.02 0.66 6 1 C6 1.66 6 2.32 6 3 C3.03 2.505 3.03 2.505 0 2 C0 1.34 0 0.68 0 0 Z " fill="#F8C680" transform="translate(66,133)"/>
</svg>
